<svg width="44" height="15" viewBox="0 0 44 15" fill="none" xmlns="http://www.w3.org/2000/svg">
<path fill-rule="evenodd" clip-rule="evenodd" d="M22 1.55358C22.7879 1.49479 25.1273 1.2008 28.1818 0.495244C32 -0.386706 37.0909 0.142464 38.7273 0.318854C39.6256 0.415692 41.2033 0.573444 42.4966 0.700904C43.3494 0.784953 44 1.50176 44 2.3587V2.75031C44 3.45322 43.4302 4.02304 42.7273 4.02304C42.6899 4.34891 42.6552 4.70034 42.6186 5.06987C42.3583 7.70067 42.0072 11.2487 40 13.0189C38.4311 14.4026 36 15.6648 31.6364 14.6064C27.2727 13.5481 26 11.6078 25.0909 9.49113C24.879 8.99772 24.6967 8.48515 24.5188 7.98469C23.9333 6.33818 23.3944 4.82275 22 4.55221C20.6056 4.82275 20.0667 6.33818 19.4812 7.98469C19.3033 8.48515 19.121 8.99772 18.9091 9.49113C18 11.6078 16.7273 13.5481 12.3636 14.6064C8 15.6648 5.56893 14.4026 4 13.0189C1.99278 11.2487 1.64171 7.70068 1.38139 5.06988C1.34482 4.70034 1.31005 4.34891 1.27273 4.02304C0.569818 4.02304 0 3.45322 0 2.75031V2.3587C0 1.50176 0.650633 0.784953 1.50344 0.700904C2.79672 0.573444 4.37437 0.415692 5.27273 0.318854C6.90909 0.142464 12 -0.386706 15.8182 0.495244C18.8727 1.2008 21.2121 1.49479 22 1.55358ZM10.9407 1C16.4013 1 18.1628 2.39536 18.8674 4.83725C19.1299 5.53493 19.1805 7.62798 17.282 10.4187C14.909 13.9071 10.7645 14.4304 7.24153 13.7327C3.71854 13.035 2.4855 7.62798 3.1901 4.83725C3.89469 2.04652 5.48004 1 10.9407 1ZM25.1326 4.83725C25.8372 2.39536 27.5987 1 33.0593 1C38.52 1 40.1053 2.04652 40.8099 4.83725C41.5145 7.62798 40.2815 13.035 36.7585 13.7327C33.2355 14.4304 29.091 13.9071 26.718 10.4187C24.8195 7.62798 24.8701 5.53493 25.1326 4.83725Z" fill="#0695D3"/>
</svg>
