<svg width="237" height="86" viewBox="0 0 237 86" fill="none" xmlns="http://www.w3.org/2000/svg">
<path fill-rule="evenodd" clip-rule="evenodd" d="M141.904 6.78006C138.379 4.53586 134.631 3.80243 131.147 5.24405L131.142 5.24613C128.647 6.27134 126.653 8.22091 124.47 10.7006C124.104 11.117 123.729 11.5519 123.346 11.9979C121.549 14.086 119.543 16.4175 117.144 18.2319L117.129 18.2433L117.129 18.2432C112.399 21.7581 106.761 22.8191 101.488 23.5788C100.738 23.6869 99.9965 23.789 99.2638 23.8898C94.6827 24.5206 90.445 25.1041 86.6246 26.8019C85.965 27.113 85.3158 27.4511 84.6249 27.811C84.5001 27.876 84.3738 27.9417 84.2459 28.0081C83.4247 28.4346 82.5447 28.8835 81.6388 29.2707C79.826 30.0454 77.7332 30.6529 75.3978 30.3601C72.325 29.9891 70.0046 28.254 68.1824 26.2433C66.5604 24.4536 65.1675 22.2525 63.918 20.2781C63.7882 20.0729 63.6598 19.8701 63.533 19.6705C62.1145 17.4388 60.8752 15.5977 59.5108 14.3746C58.2451 13.2398 57.0319 12.7742 55.5193 13.0285L55.5005 13.0316L55.5005 13.0316C54.1047 13.2538 52.958 14.0631 51.9787 15.3876C50.9783 16.7406 50.2368 18.5302 49.7196 20.4081L49.7101 20.4427L49.6995 20.477C48.6952 23.7183 47.9685 27.0618 47.2157 30.5256C47.1591 30.786 47.1023 31.0472 47.0453 31.3091C46.2381 35.0143 45.3783 38.8422 44.1051 42.5778C41.5535 50.0644 36.5278 57.8159 28.4498 60.6165L27 56.3627C33.1934 54.2155 37.5333 48.0229 39.8875 41.1156C41.0672 37.6543 41.8798 34.0604 42.6893 30.3439C42.7486 30.0717 42.8079 29.7987 42.8674 29.5251C43.6087 26.1125 44.3726 22.5958 45.4322 19.1692C46.0302 17.0085 46.959 14.6523 48.4036 12.6985C49.8756 10.7078 51.9593 9.04464 54.7955 8.59003C57.9613 8.061 60.4802 9.22539 62.4738 11.0127C64.3706 12.7132 65.9186 15.0891 67.2876 17.243C67.4092 17.4344 67.5297 17.6244 67.6492 17.8129C68.9445 19.8563 70.1278 21.7229 71.4742 23.2086C72.9119 24.795 74.3247 25.7014 75.9315 25.8943L75.9444 25.8959C77.1743 26.051 78.4241 25.7593 79.8988 25.1291C80.6374 24.8134 81.388 24.433 82.2043 24.0091C82.3223 23.9478 82.4419 23.8855 82.5631 23.8223C83.2586 23.46 84.0045 23.0713 84.7594 22.716L84.7802 22.7062L84.8012 22.6969C89.2523 20.7132 94.1982 20.039 98.7432 19.4195C99.4589 19.3219 100.165 19.2257 100.857 19.126C106.117 18.3681 110.733 17.4057 114.476 14.6274C116.454 13.1294 118.08 11.2454 119.862 9.17968C120.276 8.70025 120.698 8.21104 121.135 7.7146C123.356 5.19079 125.932 2.5305 129.457 1.08154C134.668 -1.07383 139.95 0.216889 144.285 2.97635C148.603 5.72554 152.213 10.0538 154.382 14.5491L154.392 14.5702L154.392 14.5702C156.343 18.7245 157.583 23.119 158.763 27.3006C158.854 27.6247 158.945 27.9475 159.036 28.2688C160.32 32.8007 161.6 37.0726 163.696 40.9871C165.624 44.452 168.275 47.6487 171.265 50.8084C172.759 52.3878 174.318 53.9385 175.902 55.5046C176.045 55.6468 176.189 55.7892 176.334 55.9318C177.769 57.351 179.221 58.7867 180.622 60.2384C186.32 66.1432 191.625 72.7476 192.415 81.3086C199.875 82.2782 207.643 79.567 212.736 74.0497L216 77.1148C209.436 84.2255 199.276 87.385 189.837 85.4322L188.079 85.0684L188.055 83.2586C187.956 75.6577 183.469 69.6378 177.426 63.3755C176.063 61.9636 174.649 60.5647 173.206 59.1387C173.064 58.9981 172.922 58.8572 172.779 58.716C171.197 57.1511 169.589 55.5531 168.038 53.9135C164.941 50.6401 161.993 47.1224 159.797 43.1714L159.789 43.1563L159.781 43.1411C157.421 38.7382 156.027 34.0192 154.748 29.5045C154.663 29.204 154.578 28.9045 154.494 28.606C153.293 24.354 152.15 20.3069 150.366 16.5067C148.52 12.6843 145.443 9.03298 141.904 6.78006Z" fill="white"/>
<path fill-rule="evenodd" clip-rule="evenodd" d="M15 49.2647C9.15228 49.2647 4.41176 53.8472 4.41176 59.5C4.41176 65.1528 9.15228 69.7353 15 69.7353C20.8477 69.7353 25.5882 65.1528 25.5882 59.5C25.5882 53.8472 20.8477 49.2647 15 49.2647ZM0 59.5C0 51.4919 6.71573 45 15 45C23.2843 45 30 51.4919 30 59.5C30 67.5081 23.2843 74 15 74C6.71573 74 0 67.5081 0 59.5Z" fill="white"/>
<path d="M222 78C229.18 78 235 72.4036 235 65.5C235 58.5964 229.18 53 222 53C214.82 53 209 58.5964 209 65.5C209 72.4036 214.82 78 222 78Z" fill="white"/>
<path fill-rule="evenodd" clip-rule="evenodd" d="M222 55.4118C216.152 55.4118 211.412 60.1523 211.412 66C211.412 71.8477 216.152 76.5882 222 76.5882C227.848 76.5882 232.588 71.8477 232.588 66C232.588 60.1523 227.848 55.4118 222 55.4118ZM207 66C207 57.7157 213.716 51 222 51C230.284 51 237 57.7157 237 66C237 74.2843 230.284 81 222 81C213.716 81 207 74.2843 207 66Z" fill="white"/>
</svg>
