<svg width="40" height="32" viewBox="0 0 40 32" fill="none" xmlns="http://www.w3.org/2000/svg">
<path d="M13 19.8764L12.7062 19.4718L12.3934 19.6989L12.5345 20.0588L13 19.8764ZM39 1L39.3903 1.31256L38.7062 0.59539L39 1ZM17.6558 27.6505L17.2655 27.3379L17.6558 27.6505ZM16.4098 27.2078L13.4655 19.694L12.5345 20.0588L15.4787 27.5726L16.4098 27.2078ZM13.2938 20.281L39.2938 1.40461L38.7062 0.59539L12.7062 19.4718L13.2938 20.281ZM38.6097 0.68744L17.2655 27.3379L18.0461 27.963L39.3903 1.31256L38.6097 0.68744ZM15.4787 27.5726C15.8996 28.6468 17.3249 28.8635 18.0461 27.963L17.2655 27.3379C17.0252 27.6381 16.5501 27.5658 16.4098 27.2078L15.4787 27.5726Z" fill="#F60035"/>
<path d="M21 24L17 28L17.4194 23.5102L38.7097 1.30612L38.8443 0.884518L13.5484 20.2449L0 16.6531L40 0L34.8387 32L21 24Z" fill="#F60035"/>
</svg>
