<svg width="103" height="104" viewBox="0 0 103 104" fill="none" xmlns="http://www.w3.org/2000/svg">
<mask id="mask0" mask-type="alpha" maskUnits="userSpaceOnUse" x="0" y="0" width="103" height="104">
<path d="M102.5 52C102.5 80.4472 79.662 103.5 51.5 103.5C23.338 103.5 0.5 80.4472 0.5 52C0.5 23.5528 23.338 0.5 51.5 0.5C79.662 0.5 102.5 23.5528 102.5 52Z" fill="#C4C4C4"/>
<path d="M102.5 52C102.5 80.4472 79.662 103.5 51.5 103.5C23.338 103.5 0.5 80.4472 0.5 52C0.5 23.5528 23.338 0.5 51.5 0.5C79.662 0.5 102.5 23.5528 102.5 52Z" stroke="black"/>
<path d="M102.5 52C102.5 80.4472 79.662 103.5 51.5 103.5C23.338 103.5 0.5 80.4472 0.5 52C0.5 23.5528 23.338 0.5 51.5 0.5C79.662 0.5 102.5 23.5528 102.5 52Z" stroke="black"/>
</mask>
<g mask="url(#mask0)">
<path d="M102.5 52C102.5 80.4472 79.662 103.5 51.5 103.5C23.338 103.5 0.5 80.4472 0.5 52C0.5 23.5528 23.338 0.5 51.5 0.5C79.662 0.5 102.5 23.5528 102.5 52Z" stroke="white"/>
<path fill-rule="evenodd" clip-rule="evenodd" d="M51.6496 81.4549C52.4795 84.9642 50.2269 88.4736 49.2192 89C48.9121 88.5076 48.6054 88.0392 48.2981 87.5929L48.4841 86.3958C48.5253 86.1309 48.344 85.8828 48.0791 85.8416C47.8142 85.8004 47.5661 85.9818 47.5249 86.2467L47.4899 86.4723C43.2885 80.9198 38.7456 79.1131 30.7246 76.1323C23.4216 73.4184 15.8656 71.8431 13.0005 71.3946C14.0872 68.1192 16.735 59.919 18.6319 53.3214C20.6412 46.3329 24.7788 40.0163 27.4737 35.9022L27.4737 35.9022L27.4738 35.9021L27.4738 35.902C27.9591 35.1612 28.3975 34.4919 28.7684 33.9029C31.1987 30.0426 34.7554 27.2351 40.9796 27.0596C43.6475 26.9844 45.3678 26.7265 46.9856 26.484C49.1422 26.1607 51.1164 25.8648 54.9098 26.0653C58.5024 26.2552 60.7759 27.3186 62.5567 28.7642C63.208 29.293 64.1575 29.7641 65.1314 30.2474C66.4154 30.8845 67.742 31.5427 68.4844 32.3822C68.9808 32.9434 69.0597 33.6712 69.1408 34.4202C69.2324 35.2651 69.3269 36.137 70.0268 36.8274C72.2632 39.0331 75.0699 41.0635 79.0951 41.799C83.7588 42.6511 88.3139 43.7616 90.9507 45.1329C90.989 45.1528 90.8734 45.1879 90.6746 45.2482C90.3788 45.3379 89.8992 45.4833 89.4687 45.7178C88.6717 46.1519 88.1054 46.8875 88.1054 46.8875C88.1054 46.8875 88.6308 46.4066 89.5873 46.0102C90.4094 45.6695 91.7703 45.4467 91.8404 45.4838C92.3844 45.7718 92.8428 46.0648 93.2032 46.3612C94.756 47.6379 93.7039 49.8746 92.8785 51.6293C92.5696 52.2861 92.2924 52.8753 92.1955 53.3214C92.1696 53.4406 92.1441 53.561 92.1183 53.6824L92.1178 53.6848C91.7895 55.2314 91.4262 56.9421 89.943 58.3515C88.3425 59.8722 83.3039 62.2703 80.1621 63.3231C78.9343 63.7346 78.0777 64.2711 77.3057 64.7546C76.1023 65.5083 75.1044 66.1333 73.2267 65.9551C70.7607 65.7212 66.2319 64.103 64.2757 63.3231C65.1767 63.9314 67.2989 64.7464 68.2473 65.0778C67.2001 64.9023 64.1453 64.4227 61.7268 64.8438C58.7036 65.3702 54.5542 68.3532 51.6496 71.1607C49.3048 73.4271 50.2049 76.4559 51.0756 79.3854C51.2834 80.0848 51.4896 80.7785 51.6496 81.4549ZM90.0245 50.6029C88.8506 50.4644 88.186 49.5927 88.0005 49.1742C88.0511 49.5494 88.466 50.4037 89.7209 50.8194C91.1991 51.309 91.9134 50.6835 92.2872 50.3562L92.3207 50.327L92.352 50.2998C92.7062 49.9968 93.4652 49.0443 92.605 49.001C91.9169 48.9664 91.6774 49.8525 91.6436 50.2998C91.593 50.4586 91.1984 50.7414 90.0245 50.6029ZM63.5202 39.6136C64.0736 39.2727 64.3503 39.1364 64.8345 39C65.042 39.6818 65.2219 41.2364 64.2811 42C62.9529 41.2909 61.4449 41 61.0005 41C61.1969 40.8781 61.6394 40.6245 62.0637 40.3813L62.0647 40.3808C62.3228 40.2328 62.5742 40.0888 62.7593 39.9806C62.7997 39.957 62.788 40.0368 62.7706 40.1564C62.7503 40.2959 62.722 40.4895 62.7593 40.6364C62.8424 40.9643 63.1051 41.1136 63.5202 41.0455C63.9352 40.9091 64.2486 40.5402 64.0736 40.0227C63.9737 39.7274 63.6944 39.6669 63.5722 39.6405C63.5252 39.6303 63.5014 39.6252 63.5202 39.6136ZM51.44 59.9691C52.8325 54.0201 51.1872 49.1593 49.7756 44.989C49.3182 43.6374 48.8853 42.3584 48.5882 41.1384C50.7436 43.7744 52.4695 49.0185 52.8961 53.2614C53.2185 56.4669 52.7267 59.0045 52.3337 61.033L52.3336 61.0332C52.251 61.4594 52.1728 61.8632 52.1074 62.246L52.1036 62.2681C51.3139 66.8886 49.8569 75.4144 46.4039 74.9843C44.2237 74.7128 43.2731 72.9249 42.4427 71.3629C41.9559 70.4472 41.5103 69.6091 40.8824 69.1997C40.625 69.0319 40.2979 68.8386 39.9125 68.6109C37.7548 67.3359 33.7704 64.9815 29.9608 59.9691C28.4279 57.9521 26.9382 56.8614 25.7331 55.979C23.4154 54.282 22.1497 53.3553 23.6506 48.0922C26.5145 38.0492 32.8126 34.5128 35.6036 34C28.5653 37.6307 25.7136 43.7845 24.5607 49.5076C23.8305 53.133 25.7542 54.5112 27.9257 56.0669C29.1821 56.967 30.5215 57.9266 31.4778 59.4152C33.5094 62.578 37.0865 64.7332 39.8594 66.4039L39.8594 66.4039C40.6474 66.8787 41.3704 67.3143 41.9746 67.7228C43.3285 68.6383 43.9365 70.053 44.4495 71.2468C44.971 72.4605 45.3945 73.4459 46.4039 73.4459C48.2957 73.4459 49.3209 69.0513 51.117 61.3521C51.2219 60.9023 51.3294 60.4412 51.44 59.9691Z" fill="white"/>
<path fill-rule="evenodd" clip-rule="evenodd" d="M46.5444 92.6169C45.2906 91.5752 43.5867 90.3646 41.3502 89.1779C32.7608 84.6205 28.0502 82.6306 20.5886 80.4098C17.726 79.5578 15.6045 79.1848 14.1434 78.9279C12.1735 78.5815 11.4043 78.4462 11.6382 77.6328C11.7379 77.2863 11.8378 76.9262 11.9378 76.5661C12.4677 74.6566 12.9977 72.7471 13.4887 72.8605C13.6975 72.9088 14.0604 72.9751 14.5547 73.0654C17.3783 73.5814 24.4899 74.8809 31.6555 78.0701C40.694 82.0928 44.0832 84.0132 47.3185 88.198L46.5444 92.6169ZM47.3994 93.3615C48.4692 94.3393 49.0794 95.085 49.3215 95.3853C49.3232 95.2976 49.3282 95.1474 49.3347 94.9537C49.3719 93.8381 49.4572 91.2814 49.2312 90.9319C48.8501 90.3427 48.4807 89.793 48.115 89.2766L47.3994 93.3615Z" fill="white"/>
<path fill-rule="evenodd" clip-rule="evenodd" d="M7.86274 82.7769C7.5873 83.0782 7.29993 83.3926 7.00049 83.7181L16.4898 104L54.0005 104C52.0049 99.9322 49.8316 96.9338 47.346 94.5313C47.2548 94.7167 47.0509 94.8298 46.8359 94.7964C46.5711 94.7553 46.3897 94.5072 46.4309 94.2423L46.5069 93.753C42.5705 90.2484 37.8583 88.0321 31.8791 85.3754C23.6444 81.7165 14.7256 79.1663 12.1622 79.0037C11.3943 78.9138 9.98158 80.4592 7.86274 82.7769Z" fill="white"/>
</g>
</svg>
