<svg width="833" height="84" viewBox="0 0 833 84" fill="none" xmlns="http://www.w3.org/2000/svg">
<g clip-path="url(#clip0)">
<path d="M1 70.5L29 50.5L42.5 49.5L55 34L61 19.5L65 20L70 30V35L76 37L80.5 36.5L83.5 40.5L86.5 43L100 38L107.5 38.5L119 34.5L134 48L168 58L185.5 48L189.5 46.5L193 48.5H197.5L199.5 46.5L205 44.5L209 38L213.5 34.5L222.5 35L234.5 40L239 38L244 40L249.5 38L257 39L270 37L276.5 39.5L286 36L320 41.5L397.5 47.5L401 49L413 49.5L446 34.5L475.5 44.5L514 41L543 51.5L552 63.5L566.5 74L571.5 78.5L574 76L576.5 79.5H577L578.5 75L582.5 76L587 71.5H593L596.5 66.5L608 65.5L618.5 58.5L648.5 58L665.5 52L671 48L683 52L691 48L696.5 39L710.5 34.5L723.5 12.5L749.5 9.5L762 11L772.5 22L776 21.5L782 18.5V15.5L785 11V7L788 5H791.5L798.5 10L803.5 11L806.5 13L814.5 13.5L833.5 18.5" stroke="#C24434" stroke-width="2"/>
</g>
<defs>
<clipPath id="clip0">
<rect width="833" height="84" fill="white"/>
</clipPath>
</defs>
</svg>
