<svg width="103" height="104" viewBox="0 0 103 104" fill="none" xmlns="http://www.w3.org/2000/svg">
<mask id="mask0" mask-type="alpha" maskUnits="userSpaceOnUse" x="0" y="0" width="103" height="104">
<ellipse cx="51.5" cy="52" rx="51.5" ry="52" fill="#C4C4C4"/>
</mask>
<g mask="url(#mask0)">
<path d="M102.5 52C102.5 80.4472 79.662 103.5 51.5 103.5C23.338 103.5 0.5 80.4472 0.5 52C0.5 23.5528 23.338 0.5 51.5 0.5C79.662 0.5 102.5 23.5528 102.5 52Z" stroke="white"/>
<path d="M110 113H-8L23.8224 81.0351L61.2781 76.6716L72.4456 65.6107L110 58V113Z" fill="white"/>
<ellipse cx="54" cy="18.5" rx="7" ry="7.5" fill="white"/>
<path d="M41.8109 68.0072L34.0069 77.8791C33.0741 79.0591 31.3708 79.2803 30.1675 78.3779C29.0936 77.5725 28.7508 76.1136 29.3535 74.9141L34.4965 64.6796C35.1378 63.4035 35.5427 62.0217 35.6915 60.6013L36.0044 57.6155C36.6882 51.0896 38.215 44.6798 40.5464 38.5463L43.4887 30.806C44.3048 28.6591 46.0333 26.9863 48.2058 26.241C50.2663 25.5342 52.5293 25.7295 54.4382 26.779L62.853 31.4056C64.046 32.0615 65.3853 32.4055 66.7468 32.4055H74.6813C76.5142 32.4055 78 33.8913 78 35.7241C78 37.4793 76.6334 38.9309 74.8814 39.0367L64.8237 39.6442C63.3046 39.736 61.7845 39.4822 60.3776 38.9021L55.4592 36.8739L50.853 46.954L57.1747 54.8264C58.5421 56.5292 59.3201 58.6297 59.3919 60.8123L59.771 72.3332C59.8248 73.9687 58.5136 75.3237 56.8773 75.3237C55.5305 75.3237 54.3616 74.395 54.057 73.0831L52.0408 64.3978C51.6475 62.704 50.8253 61.1397 49.6532 59.8554L45.5608 55.3714L44.0277 63.1901C43.6827 64.9493 42.9227 66.6008 41.8109 68.0072Z" fill="white"/>
<path d="M28.3313 44.8671L26.0081 42.6978C24.7905 41.5609 24.3699 39.8066 24.9397 38.2412L27.0391 32.4735C27.8224 30.3217 29.7304 28.7788 31.9985 28.4633C32.5156 28.3914 32.953 28.0447 33.1412 27.5576L34.2357 24.7238C35.4005 21.708 38.9723 20.4309 41.7853 22.0244C42.8363 22.6198 43.3107 23.8821 42.9118 25.0223L36.6909 42.8073C36.1658 44.3086 34.9753 45.4822 33.4667 45.9858C31.6793 46.5825 29.7086 46.1532 28.3313 44.8671Z" fill="white"/>
<path d="M73.9253 28.3971C74.1151 27.4792 75.0195 26.8941 75.9346 27.0974V27.0974C76.8497 27.3006 77.4214 28.2135 77.2048 29.1255L68.3669 66.3324C68.2255 66.9276 67.6324 67.2991 67.0352 67.1664V67.1664C66.438 67.0338 66.0579 66.4462 66.1818 65.8471L73.9253 28.3971Z" fill="white"/>
</g>
</svg>
