<svg width="40" height="35" viewBox="0 0 40 35" fill="none" xmlns="http://www.w3.org/2000/svg">
<g clip-path="url(#clip0)">
<path d="M20 8L5 20.4615V33C5 34.1046 5.89543 35 7 35H16.5909V24.7885H23.4091V35H33C34.1046 35 35 34.1046 35 33V20.4615L20 8Z" fill="#F60035"/>
<path fill-rule="evenodd" clip-rule="evenodd" d="M3.57742 18.7244L18.6475 5.54729C19.3961 4.89269 20.512 4.88758 21.2666 5.53529L36.6614 18.7493C37.4756 19.4481 38.6961 19.38 39.4274 18.595L39.6885 18.3147C40.467 17.4791 40.3888 16.1623 39.5169 15.4246L35.1185 11.7035V2C35.1185 0.895431 34.2231 0 33.1185 0H31.1185C30.0139 0 29.1185 0.89543 29.1185 2V6.62726L22.2965 0.855633C21.6435 0.303157 20.8158 0 19.9604 0C19.0947 0 18.2576 0.310568 17.6013 0.87528L0.695512 15.4227C-0.165195 16.1633 -0.237362 17.4711 0.53663 18.3019L0.797544 18.582C1.53373 19.3723 2.76436 19.4353 3.57742 18.7244Z" fill="#F60035"/>
</g>
<defs>
<clipPath id="clip0">
<rect width="40" height="35" fill="white"/>
</clipPath>
</defs>
</svg>
