<svg width="13" height="23" viewBox="0 0 13 23" fill="none" xmlns="http://www.w3.org/2000/svg">
<path d="M1.5 11.2031L7.875 4.82812C8.09375 4.60937 8.35938 4.5 8.67188 4.5C8.98438 4.5 9.25 4.60937 9.46875 4.82812L10.5 5.90625C10.7188 6.125 10.8281 6.39062 10.8281 6.70312C10.8281 7.01563 10.7188 7.26562 10.5 7.45312L6 12L10.5 16.5C10.7188 16.7188 10.8281 16.9844 10.8281 17.2969C10.8281 17.6094 10.7188 17.875 10.5 18.0938L9.46875 19.1719C9.25 19.3906 8.98438 19.5 8.67188 19.5C8.35938 19.5 8.09375 19.3906 7.875 19.1719L1.5 12.7969C1.28125 12.5781 1.17188 12.3125 1.17188 12C1.17188 11.6875 1.28125 11.4219 1.5 11.2031Z" fill="white"/>
</svg>
