<svg width="289" height="243" viewBox="0 0 289 243" fill="none" xmlns="http://www.w3.org/2000/svg">
<g clip-path="url(#clip0)">
<path d="M147.274 88.1515C133.349 88.1515 107.728 85.4131 103.206 103.218C101.97 108.086 98.711 116.728 103.632 120.406C115.76 129.473 129.066 133.675 144.4 133.987C164.213 134.39 182.605 125.148 198.793 114.146C203.045 111.257 204.899 108.143 203.583 102.9C202.415 98.2391 192.157 94.6387 188.468 92.9261C180.279 89.1243 166.699 90.3429 158.131 92.1834C153.013 93.2829 139.61 93.9602 139.61 101.52" stroke="white" stroke-linecap="round" stroke-linejoin="round"/>
<path d="M154 96C169.019 71.1672 188.018 52.2475 208.24 31.963C213.316 26.8709 219.548 21.2359 226 18" stroke="white" stroke-linecap="round" stroke-linejoin="round"/>
<path d="M236.037 5.08251C230.452 5.08251 222.162 3.61928 216.724 5.24217C211.339 6.84928 211 13.4288 211 17.9617C211 22.5714 223.452 20.4098 225.765 20.4098C243.747 20.4098 264.876 23.2196 282.044 16.5779C285.25 15.3377 288.848 13.9697 288.998 10.0852C289.133 6.60452 280.215 4.37523 277.443 3.37948C265.51 -0.90752 251.993 0.29274 239.567 0.29274C231.761 0.29274 222.632 -1.35466 215.815 3.1666" stroke="white" stroke-linecap="round" stroke-linejoin="round"/>
<path d="M177 129C192.854 135.926 201.661 148.525 208 164" stroke="white" stroke-linecap="round" stroke-linejoin="round"/>
<path d="M229.407 163.086C219.73 163.086 207.006 160.842 197.567 163.298C192.145 164.709 191.875 171.49 192.029 175.937C193.087 206.546 238.435 212.594 260.927 202.49C265.3 200.526 271.727 197.256 272.748 192.293C274.309 184.702 275.571 171.568 269.021 165.953C260.393 158.558 248.703 157.405 238.032 155.438C235.339 154.942 223.23 152.466 221.74 155.438" stroke="white" stroke-linecap="round" stroke-linejoin="round"/>
<path d="M196 193.757C187.276 193.757 172.082 190.559 165.27 197.308C160.722 201.815 153 210.284 153 217" stroke="white" stroke-linecap="round" stroke-linejoin="round"/>
<path d="M173.192 216.919C158.356 216.919 139.548 213.05 132.187 228.968C124.736 245.082 154.468 243.209 162.755 242.616C176.547 241.63 193.35 236.384 204.825 228.222C206.293 227.178 209.41 223.743 207.275 221.718C203.383 218.026 195.288 218.348 190.446 217.666C186.023 217.042 181.501 215 177.027 215" stroke="white" stroke-linecap="round" stroke-linejoin="round"/>
<path d="M113 92C98.0119 91.8435 82.4566 89.1606 68.2106 84.5C61.677 82.3625 55.4146 79.0985 49 77" stroke="white" stroke-linecap="round" stroke-linejoin="round"/>
<path d="M44.6894 46.7057C36.7526 42.2223 23.6479 40.199 14.8044 43.9917C8.73934 46.5929 0.279682 53.3897 0.023721 60.6012C-0.16531 65.9269 0.692213 67.1234 5.63391 69.1773C15.8995 73.4437 26.2517 76.8368 37.4609 76.9935C46.6161 77.1214 48.45 75.4064 53.8599 68.9601C59.6445 62.0675 68.275 58.5829 67.9933 48.6597C67.8394 43.2394 59.1809 43.7746 55.3704 43.7746C48.1934 43.7746 41.1039 42.7976 34.0085 42.7976" stroke="white" stroke-linecap="round" stroke-linejoin="round"/>
</g>
<defs>
<clipPath id="clip0">
<rect width="289" height="243" fill="white"/>
</clipPath>
</defs>
</svg>
