<svg width="103" height="104" viewBox="0 0 103 104" fill="none" xmlns="http://www.w3.org/2000/svg">
<mask id="mask0" mask-type="alpha" maskUnits="userSpaceOnUse" x="0" y="0" width="103" height="104">
<ellipse cx="51.5" cy="52" rx="51.5" ry="52" fill="white"/>
</mask>
<g mask="url(#mask0)">
<path d="M102.5 52C102.5 80.4472 79.662 103.5 51.5 103.5C23.338 103.5 0.5 80.4472 0.5 52C0.5 23.5528 23.338 0.5 51.5 0.5C79.662 0.5 102.5 23.5528 102.5 52Z" stroke="white"/>
<path fill-rule="evenodd" clip-rule="evenodd" d="M31 15.0863C31 14.318 31.3765 13.6006 32.0033 13.1744C44.1123 4.94185 59.8877 4.94185 71.9967 13.1744C72.6235 13.6006 73 14.318 73 15.0863V15.5686C82.0844 21.9222 88 32.2894 88 44V56.25C88 57.2165 87.1941 58 86.2 58C85.2059 58 84.4 57.2165 84.4 56.25V44C84.4 34.3003 79.8907 25.6246 72.7989 19.8463C72.2941 20.9015 70.9373 21.3775 69.8697 20.6517C59.0487 13.2948 44.9513 13.2948 34.1303 20.6517C33.0627 21.3775 31.7059 20.9015 31.2011 19.8463C24.1093 25.6246 19.6 34.3003 19.6 44V56.25C19.6 57.2165 18.7941 58 17.8 58C16.8059 58 16 57.2165 16 56.25V44C16 32.2894 21.9156 21.9221 31 15.5686V15.0863ZM65 43.5833C65 42.1566 66.1193 41 67.5 41C68.8807 41 70 42.1566 70 43.5833V69.4167C70 70.8434 68.8807 72 67.5 72C66.1193 72 65 70.8434 65 69.4167V43.5833ZM76.2121 67.7106C75.686 68.0807 75.13 68.4155 74.5464 68.7109L72 70V43L74.5464 44.2891C79.1145 46.6017 82 51.3289 82 56.5C82 60.2043 80.5193 63.6809 78 66.2052V84.5119C78 88.0952 75.0917 91 71.504 91H40.0076C37.7859 91 35.9848 92.7989 35.9848 95.0179C35.9848 97.2369 37.7859 99.0357 40.0076 99.0357H69.5076C74.1978 99.0357 78 102.833 78 107.518C78 112.202 74.1978 116 69.5076 116H27.0455C22.6021 116 19 112.402 19 107.964V77.7214C18.117 77.3048 17.4998 76.3532 17.4998 75.246L17.4998 71.646C17.4998 70.5387 18.117 69.5872 19 69.1706V67.9C19 67.4029 19.4477 67 20 67C20.5523 67 21 67.4029 21 67.9V69.1707C21.8829 69.5874 22.4998 70.5389 22.4998 71.646V75.246C22.4998 76.4398 21.7825 77.4526 20.7879 77.8091V107.964C20.7879 111.416 23.5895 114.214 27.0455 114.214H69.5076C73.2104 114.214 76.2121 111.216 76.2121 107.518C76.2121 103.82 73.2104 100.821 69.5076 100.821H40.0076C36.7985 100.821 34.197 98.2231 34.197 95.0179C34.197 91.8126 36.7985 89.2143 40.0076 89.2143H71.504C74.1042 89.2143 76.2121 87.109 76.2121 84.5119V67.7106ZM29.4536 44.2891C24.8855 46.6017 22 51.3289 22 56.5C22 61.6711 24.8855 66.3983 29.4536 68.7109L32 70L32 43L29.4536 44.2891ZM39 69.4167C39 70.8434 37.8807 72 36.5 72C35.1193 72 34 70.8434 34 69.4167L34 43.5833C34 42.1566 35.1193 41 36.5 41C37.8807 41 39 42.1566 39 43.5833L39 69.4167Z" fill="white"/>
</g>
</svg>
