<svg width="253" height="196" viewBox="0 0 253 196" fill="none" xmlns="http://www.w3.org/2000/svg">
<g clip-path="url(#clip0)">
<rect width="253" height="196" fill="white"/>
<rect width="253" height="196" fill="white"/>
<rect width="63" height="49" transform="matrix(1 0 0 -1 64 49)" fill="#0695D3"/>
<rect width="64" height="49" transform="matrix(1 0 0 -1 189 49)" fill="#0695D3"/>
<rect width="64" height="49" transform="matrix(1 0 0 -1 0 98)" fill="#0695D3"/>
<rect width="62" height="49" transform="matrix(1 0 0 -1 127 98)" fill="#0695D3"/>
<rect width="63" height="49" transform="matrix(1 0 0 -1 64 147)" fill="#0695D3"/>
<rect width="64" height="49" transform="matrix(1 0 0 -1 189 147)" fill="#0695D3"/>
<rect width="64" height="49" transform="matrix(1 0 0 -1 0 196)" fill="#0695D3"/>
<rect width="62" height="49" transform="matrix(1 0 0 -1 127 196)" fill="#0695D3"/>
<rect x="0.5" y="0.5" width="252" height="195" stroke="black"/>
</g>
<defs>
<clipPath id="clip0">
<rect width="253" height="196" fill="white"/>
</clipPath>
</defs>
</svg>
