<svg width="561" height="506" viewBox="0 0 561 506" fill="none" xmlns="http://www.w3.org/2000/svg">
<path d="M389.536 437.456C368.608 437.456 349.696 432.944 332.8 423.92C316.096 414.896 302.944 402.512 293.344 386.768C283.936 370.832 279.232 352.976 279.232 333.2C279.232 313.424 283.936 295.664 293.344 279.92C302.944 263.984 316.096 251.504 332.8 242.48C349.696 233.456 368.608 228.944 389.536 228.944C410.464 228.944 429.28 233.456 445.984 242.48C462.688 251.504 475.84 263.984 485.44 279.92C495.04 295.664 499.84 313.424 499.84 333.2C499.84 352.976 495.04 370.832 485.44 386.768C475.84 402.512 462.688 414.896 445.984 423.92C429.28 432.944 410.464 437.456 389.536 437.456ZM389.536 397.712C401.44 397.712 412.192 395.024 421.792 389.648C431.392 384.08 438.88 376.4 444.256 366.608C449.824 356.816 452.608 345.68 452.608 333.2C452.608 320.72 449.824 309.584 444.256 299.792C438.88 290 431.392 282.416 421.792 277.04C412.192 271.472 401.44 268.688 389.536 268.688C377.632 268.688 366.88 271.472 357.28 277.04C347.68 282.416 340.096 290 334.528 299.792C329.152 309.584 326.464 320.72 326.464 333.2C326.464 345.68 329.152 356.816 334.528 366.608C340.096 376.4 347.68 384.08 357.28 389.648C366.88 395.024 377.632 397.712 389.536 397.712Z" fill="black"/>
<rect x="154" y="155" width="253" height="196" fill="#FFEF00"/>
<path d="M407 155H154L407 351V155Z" fill="#F60035"/>
<rect x="154.5" y="155.5" width="252" height="195" stroke="black"/>
</svg>
