<svg width="103" height="104" viewBox="0 0 103 104" fill="none" xmlns="http://www.w3.org/2000/svg">
<mask id="mask0" mask-type="alpha" maskUnits="userSpaceOnUse" x="0" y="0" width="103" height="104">
<ellipse cx="51.5" cy="52" rx="51.5" ry="52" fill="white"/>
</mask>
<g mask="url(#mask0)">
<path d="M102.5 52C102.5 80.4472 79.662 103.5 51.5 103.5C23.338 103.5 0.5 80.4472 0.5 52C0.5 23.5528 23.338 0.5 51.5 0.5C79.662 0.5 102.5 23.5528 102.5 52Z" stroke="white"/>
<path fill-rule="evenodd" clip-rule="evenodd" d="M91.5882 44.1368L90.0919 44.4366C88.1001 42.717 83.3995 38.9401 80.5319 37.5894C79.7147 37.2044 79.0831 36.8721 78.5399 36.5863C76.7004 35.6184 75.8744 35.1839 72.2869 35.0451C68.5692 34.9014 64.9095 34.9189 63.5443 34.9455C61.8339 35.9259 57.623 37.9832 54.4622 38.3696C51.3014 38.7561 46.4851 37.8493 44.472 37.3475C41.5321 38.3068 35.2137 40.1528 33.4598 39.8625C32.8368 39.7593 31.9128 39.4874 30.8374 39.1708C28.1281 38.3733 24.4583 37.2931 22.2221 37.9179C19.7231 38.616 17.2086 39.9097 16.2638 40.4693C16.6784 38.4321 18.0982 33.8321 20.4599 31.7298C22.8217 29.6275 25.136 28.7977 25.9979 28.6456C26.0281 27.8784 26.7396 26.115 29.3435 25.1984C30.7436 24.7055 31.9472 24.4918 33.1117 24.285C34.6544 24.0111 36.1287 23.7493 37.9011 22.8667C38.2101 22.7128 38.5163 22.5577 38.8212 22.4033C41.5857 21.0029 44.2398 19.6584 47.8104 19.8322C49.1319 19.8966 50.2053 19.6952 51.2787 19.4939C53.4254 19.0912 55.5722 18.6885 59.7037 20.4113C64.6615 22.4787 68.2392 26.1062 69.4083 27.6615C70.7387 28.1766 73.5705 29.5551 74.2538 30.9485C74.9371 32.342 75.8522 33.4874 76.2244 33.886C77.6905 34.3533 81.3974 35.7869 84.4964 37.7824C87.5954 39.7779 90.5155 42.8501 91.5882 44.1368ZM67.311 32.0308C63.1145 31.6169 53.6032 30.865 49.1297 31.1689C47.2518 31.2965 45.5101 31.2993 43.8191 31.3021C40.4745 31.3076 37.3282 31.3128 33.7192 32.2818C29.3721 33.449 23.0444 35.7371 20.4239 36.7352C21.863 35.8504 25.7177 33.7369 29.6236 32.3619C34.506 30.6432 38.8638 30.0169 44.6003 30.04C45.3359 30.043 46.15 30.0444 47.0177 30.0459C52.9168 30.0563 61.2908 30.0709 64.2779 30.6022C67.019 31.0896 71.188 32.4059 72.9298 33.0031C71.596 32.7296 68.605 32.1523 67.311 32.0308Z" fill="white"/>
<path fill-rule="evenodd" clip-rule="evenodd" d="M8.63934 123.384L9.5068 122.14C12.1457 122.01 18.1764 121.499 21.1877 120.501C22.0458 120.216 22.7334 120.021 23.3248 119.854C25.3274 119.286 26.2266 119.032 28.9072 116.666C31.6849 114.214 34.3081 111.687 35.2725 110.729C35.8173 108.848 37.4083 104.472 39.4136 102.022C41.419 99.5711 45.5224 96.914 47.3235 95.8918C48.7685 93.1804 52.0251 87.5087 53.4915 86.5124C54.0123 86.1585 54.8683 85.7193 55.8644 85.2081C58.374 83.9204 61.7734 82.1761 62.946 80.1894C64.2564 77.9691 65.1607 75.3095 65.4491 74.2572C66.5777 76.0091 68.7778 80.2972 68.5499 83.4342C68.322 86.5713 67.2368 88.7593 66.7227 89.4613C67.2384 90.0345 67.9614 91.7932 66.7285 94.2429C66.0656 95.5601 65.3487 96.5411 64.655 97.4904C63.736 98.7479 62.8577 99.9497 62.1998 101.803C62.0851 102.126 61.9732 102.449 61.8619 102.769C60.8522 105.678 59.8829 108.47 57.1899 110.799C56.1933 111.661 55.5614 112.543 54.9295 113.426C53.6657 115.191 52.402 116.957 48.22 118.556C43.2016 120.474 38.0841 120.321 36.1527 120.005C34.8338 120.548 31.8289 121.502 30.3607 120.968C28.8925 120.434 27.4311 120.238 26.8839 120.207C25.5008 120.878 21.8272 122.393 18.1977 123.086C14.5681 123.779 10.3131 123.574 8.63934 123.384ZM34.6027 115.417C37.9146 112.831 45.2903 106.835 48.2988 103.542C49.5616 102.16 50.8138 100.961 52.0295 99.7963C54.4341 97.4937 56.6961 95.3277 58.6161 92.1495C60.9287 88.3214 63.8824 82.3249 65.0701 79.8051C64.6537 81.4314 63.3585 85.6025 61.5092 89.277C59.1975 93.8702 56.4982 97.3162 52.3512 101.242C51.8194 101.745 51.2322 102.304 50.6063 102.899C46.3512 106.946 40.3108 112.691 37.7877 114.361C35.4723 115.894 31.5482 117.811 29.8755 118.578C31.0275 117.859 33.5858 116.219 34.6027 115.417Z" fill="white"/>
<path fill-rule="evenodd" clip-rule="evenodd" d="M63.2781 67.962C61.6887 68.4965 57.8164 69.5045 55.0423 69.2601C52.2683 69.0156 49.7764 68.4232 48.8773 68.1576C50.1359 67.1146 52.4139 64.1022 51.4563 60.3963C50.2593 55.764 47.5395 51.0241 44.0152 48.9561C41.1958 47.3016 36.9551 45.5468 35.1871 44.8762C35.7137 45.4996 36.6092 47.0626 35.9794 48.3279C35.1921 49.9095 34.6615 51.3273 34.2962 52.9993C34.1335 53.7443 34.3897 54.5791 34.6395 55.3932C34.9504 56.4062 35.2514 57.3871 34.7232 58.123C33.7706 59.4504 33.314 61.5404 34.1408 62.8115C34.9676 64.0827 33.8323 66.2461 32.6748 64.4665C32.0606 63.5221 32.0711 62.2804 32.0817 61.0325C32.0911 59.9287 32.1005 58.82 31.6777 57.9079C31.254 56.9939 31.296 55.0665 31.3389 53.0961C31.3873 50.877 31.4368 48.6031 30.8237 47.6605C30.033 46.4448 29.4577 46.6026 28.307 46.9182C27.7732 47.0646 27.1157 47.2449 26.2554 47.3379C24.0836 47.5726 22.6472 47.0022 22.2005 46.6877C22.6661 47.5897 23.7593 49.866 24.4069 51.7551C25.2164 54.1165 25.9174 57.9861 25.2041 60.24C24.8183 61.4591 25.3287 62.4222 25.7161 63.1533C26.0449 63.7736 26.285 64.2269 25.8137 64.5276C24.787 65.1827 24.291 64.4201 23.8862 63.2394C23.4815 62.0587 23.2764 58.9519 23.3282 55.6811C23.38 52.4104 21.3782 50.45 19.1597 51.5059C17.3849 52.3506 16.0476 51.9328 15.6009 51.6184C15.7547 52.5994 16.327 54.9683 17.3852 56.5954C18.7081 58.6292 20.527 61.4257 19.335 61.8266C18.1429 62.2275 16.4894 59.6852 15.8452 57.5781C15.7805 57.3664 15.7193 57.1489 15.6579 56.9304C15.1076 54.9742 14.5367 52.9446 11.2376 54.4026C9.52792 55.1581 8.49993 55.8696 7.65733 56.4527C6.69248 57.1205 5.9707 57.62 4.74678 57.8249C2.91256 58.1319 1.3401 57.2406 0.783156 56.7566C2.11177 58.427 4.79516 62.2548 4.89981 64.2026C5.03063 66.6373 6.09681 68.8349 7.87625 68.7787C9.65568 68.7224 11.5263 68.2483 13.9104 67.4465C16.2945 66.6447 20.6972 66.7132 20.6801 67.8034C20.6719 68.3253 20.4402 68.2477 20.0138 68.105C19.5494 67.9496 18.8542 67.717 17.9653 68.0967C17.3008 68.3806 16.8536 68.7442 16.3741 69.1341C15.623 69.7449 14.7925 70.4203 12.9232 70.9544C10.4731 71.6544 7.27889 70.8386 5.98808 70.3433C6.80335 72.3412 9.16393 76.2311 12.0841 75.8067C15.7342 75.2762 17.7875 73.966 20.611 72.1644C22.348 71.056 23.9402 70.9931 25.3055 70.9392C26.1594 70.9055 26.9245 70.8753 27.5807 70.5949C28.0803 70.3815 28.4853 70.1667 28.8209 69.9887C29.6311 69.5591 30.0361 69.3443 30.3869 69.8836C30.8829 70.6462 29.1773 71.3749 27.3067 71.849C25.436 72.3232 22.6299 73.0345 19.2932 75.1637L14.1598 78.4393C15.7394 80.3094 19.5327 83.5728 22.0697 81.6661C23.2298 80.7942 24.3457 79.8543 25.4156 78.9531C27.2705 77.3907 28.9873 75.9446 30.5572 75.171C32.0499 74.4354 33.6567 74.2812 35.0148 74.1508C35.9088 74.065 36.695 73.9896 37.2701 73.7654C37.9053 73.5178 38.431 72.9944 38.9061 72.5212C39.5146 71.9152 40.0402 71.3918 40.607 71.6362C41.6163 72.0714 41.3252 74.4156 38.941 75.2174C38.6102 75.3287 38.2713 75.4382 37.9226 75.5509C35.758 76.2503 33.2164 77.0716 29.9006 79.1874C26.8206 81.1527 24.4497 82.9054 23.6493 83.5361C27.51 85.7492 36.7201 89.2255 42.675 85.4257C50.1186 80.676 51.1231 76.0779 50.2222 74.1345C49.5016 72.5798 48.8311 71.065 48.5859 70.502C51.0935 70.8205 56.5672 71.3809 58.4013 71.0739C60.2354 70.7669 62.7967 69.828 63.8481 69.397L63.2781 67.962ZM8.14496 62.4912C10.2362 62.3559 15.0243 62.3465 17.4469 63.3907C18.1677 63.7015 18.874 64.0215 19.558 64.3314C21.7477 65.3235 23.7096 66.2124 25.1915 66.3632C26.7473 66.5216 28.7142 66.7535 29.5031 66.8497C29.912 65.9892 30.0755 63.6065 29.9942 62.5791C29.9623 62.1756 29.6612 61.4751 29.3427 60.7339C29.0493 60.0514 28.7412 59.3344 28.6146 58.7828C29.276 59.7997 30.6468 62.0188 30.8383 62.76C31.0777 63.6865 30.8605 66.703 30.8605 66.703C30.8605 66.703 32.0526 66.3021 36.2728 67.2065C39.3589 67.8679 41.4173 67.8825 42.3088 67.8889C42.3926 67.8895 42.4662 67.89 42.5292 67.891C42.6683 66.2434 42.9794 62.9991 43.4769 61.5304C44.0989 59.6946 44.0421 57.9321 43.546 57.1694C43.1492 56.5593 40.8946 53.4652 39.8169 51.9944C41.4021 53.501 44.2647 56.7108 44.7208 57.8587C45.1314 58.8921 44.9237 60.1334 44.7007 61.4666C44.614 61.9847 44.525 62.5167 44.4691 63.0558C44.3358 64.3399 44.3327 65.3279 44.3296 66.3158C44.328 66.8098 44.3265 67.3038 44.3087 67.8348L47.8503 68.8125L47.0802 69.3039L44.4568 69.1792C44.8615 70.3599 45.3665 72.6998 44.4444 75.3027C43.2919 78.5563 41.0732 79.6124 39.1111 80.5046C37.5414 81.2184 34.8258 81.92 33.6642 82.1816C35.767 81.3195 40.35 79.2824 41.8604 78.0308C43.7485 76.4663 43.9656 73.4498 43.8916 72.7775C43.8324 72.2398 43.3388 70.2524 43.0994 69.3259C42.1393 69.3389 39.8816 69.2927 38.5311 69.0032C37.1806 68.7138 35.326 68.1705 34.5675 67.935C34.3906 68.4076 33.795 69.6511 32.8275 70.844C31.6182 72.3351 29.6389 74.3176 27.9335 75.0461C26.5692 75.6289 23.6235 76.2374 22.3212 76.4688C24.1064 76.0492 28.1936 74.6643 30.2608 72.4818C32.328 70.2993 32.9829 68.7063 33.0519 68.1826C32.4259 68.2223 30.8694 68.2802 29.6512 68.1941C28.433 68.1081 26.6114 67.6156 25.8529 67.3801C25.5716 67.3198 24.8035 67.3303 23.9822 67.8544L19.3621 70.8025C21.0732 69.7106 24.2606 67.3889 23.3207 66.8375C22.146 66.1481 18.9524 64.5885 16.8422 64.1363C15.1541 63.7745 10.3407 62.8888 8.14496 62.4912Z" fill="white"/>
<path fill-rule="evenodd" clip-rule="evenodd" d="M78.9403 102.302C79.5982 100.772 81.4225 97.2421 83.4565 95.3578C85.4905 93.4735 87.598 92.0295 88.3975 91.5431C88.3427 93.1676 89.0897 96.8579 92.5162 98.6227C96.7993 100.829 102.179 101.983 106.085 100.761C109.21 99.7834 113.359 97.824 115.042 96.9665C114.222 96.9393 112.449 96.5579 111.917 95.2492C111.252 93.6133 110.54 92.2761 109.525 90.8914C109.073 90.2745 108.275 89.9068 107.496 89.5482C106.526 89.1021 105.588 88.6701 105.386 87.7894C105.023 86.2011 103.755 84.4702 102.247 84.2326C100.74 83.9951 99.8695 81.7144 101.98 82.047C103.1 82.2235 104.027 83.0594 104.959 83.8995C105.783 84.6426 106.611 85.3889 107.579 85.6852C108.549 85.9821 109.971 87.2985 111.425 88.6443C113.062 90.16 114.74 91.7131 115.858 91.8892C117.3 92.1165 117.565 91.5866 118.095 90.5269C118.34 90.0354 118.643 89.4298 119.147 88.7329C120.419 86.9735 121.806 86.2939 122.341 86.1739C121.351 85.916 118.91 85.2047 117.057 84.4227C114.741 83.4453 111.362 81.3818 110.142 79.3522C109.482 78.2544 108.417 77.9887 107.609 77.7871C106.923 77.616 106.422 77.491 106.51 76.9426C106.702 75.7479 107.607 75.8905 108.765 76.3792C109.923 76.8679 112.397 78.7886 114.823 81.0082C117.249 83.2278 120.059 83.0578 120.744 80.7163C121.292 78.8431 122.498 78.1348 123.033 78.0148C122.192 77.474 120.028 76.3165 118.099 76.0124C115.686 75.6323 112.369 75.1096 112.863 73.9625C113.356 72.8154 116.372 73.2905 118.386 74.2204C118.589 74.3139 118.793 74.4138 118.999 74.5141C120.837 75.4127 122.745 76.3449 123.848 72.9378C124.42 71.1721 124.57 69.9389 124.694 68.9281C124.835 67.7707 124.94 66.9048 125.603 65.8649C126.595 64.3065 128.314 63.7404 129.05 63.6521C126.907 63.5186 122.238 62.9462 120.703 61.7244C118.784 60.1971 116.42 59.5184 115.275 60.8691C114.131 62.2199 113.24 63.9167 112.253 66.2109C111.266 68.5052 108.278 71.7088 107.47 70.9691C107.082 70.615 107.295 70.4957 107.687 70.2762C108.114 70.0371 108.752 69.6792 109.059 68.7699C109.289 68.0902 109.314 67.5176 109.34 66.9037C109.382 65.942 109.428 64.8787 110.272 63.1429C111.38 60.8677 114.124 59.0544 115.357 58.4321C113.311 57.7013 108.81 56.8492 107.182 59.2874C105.146 62.3351 104.763 64.7243 104.235 68.0097C103.91 70.0309 102.896 71.2479 102.026 72.2914C101.482 72.9441 100.994 73.5289 100.767 74.2002C100.595 74.7112 100.486 75.1534 100.396 75.5198C100.179 76.4042 100.071 76.8464 99.4309 76.7456C98.5263 76.6031 99.1157 74.8583 100.007 73.1615C100.897 71.4647 102.234 68.9193 102.857 65.0367L103.817 59.0636C101.357 58.9821 96.3717 59.6052 96.1141 62.7493C95.9962 64.1869 95.9591 65.6373 95.9235 67.028C95.8618 69.4389 95.8047 71.6704 95.3397 73.345C94.8975 74.9372 93.9419 76.2259 93.1342 77.3151C92.6025 78.0322 92.1349 78.6628 91.92 79.2367C91.6826 79.8706 91.7259 80.6077 91.7649 81.2739C91.815 82.1271 91.8582 82.8641 91.2964 83.1195C90.2958 83.5741 88.7265 81.7959 89.7133 79.5015C89.8502 79.1831 89.9939 78.8599 90.1417 78.5274C91.0591 76.4635 92.1364 74.04 92.7561 70.1817C93.3317 66.5979 93.5944 63.6792 93.6538 62.6678C89.4141 64.0411 80.6564 68.52 79.5434 75.449C78.1523 84.1103 80.9414 87.9183 83.0042 88.5495C84.6544 89.0546 86.2411 89.57 86.8282 89.7646C84.9162 91.4027 80.8441 95.0687 79.8518 96.6271C78.8595 98.1855 77.8576 100.702 77.4807 101.765L78.9403 102.302ZM119.826 65.2611C118.533 66.8947 115.347 70.4347 112.945 71.5262C112.231 71.851 111.519 72.1588 110.83 72.4569C108.623 73.4113 106.646 74.2664 105.544 75.2595C104.387 76.3021 102.901 77.599 102.302 78.1171C102.677 78.9927 104.361 80.7025 105.188 81.3277C105.512 81.5733 106.24 81.8183 107.01 82.0775C107.719 82.3162 108.464 82.567 108.964 82.8414C107.758 82.6513 105.174 82.183 104.489 81.83C103.632 81.3888 101.508 79.2167 101.508 79.2167C101.508 79.2167 101.014 80.3639 97.5191 82.8753C94.9634 84.7118 93.5795 86.2212 92.9802 86.8749C92.9238 86.9364 92.8744 86.9903 92.8316 87.0362C93.9783 88.2377 96.2115 90.631 96.9845 91.9777C97.9508 93.6611 99.3146 94.7947 100.219 94.9372C100.943 95.0512 104.774 95.4508 106.599 95.6363C104.409 95.8015 100.085 95.7735 98.9171 95.3445C97.8659 94.9583 97.0706 93.9772 96.2164 92.9234C95.8844 92.5139 95.5436 92.0935 95.1753 91.6926C94.2981 90.7378 93.557 90.0766 92.8158 89.4155C92.4453 89.0849 92.0747 88.7543 91.6872 88.387L88.5896 90.3487L88.7335 89.4527L90.577 87.5996C89.4188 87.1109 87.3218 85.923 85.9786 83.5066C84.2996 80.486 84.9849 78.1443 85.6222 76.1012C86.1321 74.4667 87.4154 71.9946 87.9934 70.9628C87.2395 73.0896 85.7154 77.8307 85.6496 79.7801C85.5674 82.2169 87.6918 84.389 88.2469 84.7827C88.691 85.0977 90.5153 86.0588 91.3719 86.5C92.0024 85.7828 93.543 84.1474 94.6614 83.3437C95.7798 82.54 97.4254 81.5336 98.1084 81.1309C97.8709 80.6852 97.3327 79.4163 97.0805 77.9067C96.7652 76.0197 96.5939 73.2367 97.1833 71.4923C97.6548 70.0967 99.1615 67.5169 99.856 66.4014C98.9811 67.9988 97.297 71.9389 97.5602 74.9201C97.8234 77.9013 98.585 79.447 98.9329 79.8473C99.3206 79.3588 100.315 78.1714 101.192 77.3297C102.069 76.4881 103.655 75.4722 104.338 75.0694C104.571 74.902 105.075 74.3282 105.229 73.3725L106.092 67.9966C105.772 69.9876 105.393 73.8883 106.435 73.5625C107.737 73.1553 111.04 71.8384 112.788 70.5827C114.186 69.5781 118.062 66.6164 119.826 65.2611Z" fill="white"/>
<path fill-rule="evenodd" clip-rule="evenodd" d="M45.9766 42.0092C47.5251 42.7738 51.114 44.681 53.0821 46.1934C55.0502 47.7058 56.9093 49.4347 57.5929 50.1101C56.8653 50.652 55.4107 52.2766 55.4134 54.4406C55.4167 57.1455 57.1965 61.0655 57.743 61.3353C58.2895 61.6051 60.6093 60.3852 61.425 57.4088C62.0775 55.0277 60.9638 52.4504 60.3254 51.4593L64.5621 54.5649C63.9713 55.2869 62.7355 57.1097 62.5188 58.6247C62.248 60.5185 62.7962 62.1408 64.1633 63.4916C65.257 64.5723 66.9883 66.0128 67.7172 66.598C67.8072 65.7413 68.0689 63.8656 68.3959 63.2161C68.8045 62.4041 69.3477 59.969 68.3901 58.4825C67.624 57.2932 66.8854 56.2753 66.6119 55.9149C68.115 56.7697 71.1757 58.5062 71.3943 58.6142C71.4731 58.6531 71.4158 58.8497 71.3238 59.165C71.0971 59.9427 70.6599 61.4422 71.5362 63.0771C72.5216 64.9152 76.4108 66.7229 78.2322 67.397C78.3546 66.695 77.9959 64.7751 77.7513 63.6075C77.6345 63.0501 73.989 58.8816 73.989 58.8816C73.989 58.8816 78.315 62.9039 79.0462 63.0682C80.1348 63.3127 81.5095 63.4697 83.1426 63.0633C85.3267 62.5197 87.3279 61.3001 88.0555 60.7583C86.5067 59.7683 82.8904 57.7349 80.8146 57.521C78.7389 57.3071 76.2177 57.6166 75.2166 57.7982C76.1263 57.3463 78.2457 55.9823 79.445 54.1415C80.6444 52.3008 80.8518 50.6685 80.8056 50.0825C79.1215 50.0395 75.4532 50.2783 74.2532 51.578C73.0532 52.8778 71.4818 55.7288 70.8461 56.9919L66.0637 54.2927C66.9286 54.3818 69.0952 54.3702 70.842 53.6108C72.5889 52.8513 74.7521 50.1348 75.6154 48.8715C73.8396 48.3326 69.8243 47.6341 67.9691 49.1511C66.114 50.6681 65.1967 52.4003 64.9699 53.0768L61.2805 50.9172C62.3273 50.8709 64.8027 50.2909 66.3296 48.3416C67.8566 46.3922 68.4199 45.544 68.5107 45.3636C67.008 44.7342 63.5386 43.8548 61.6835 45.3717C59.8283 46.8887 59.0018 48.4405 58.8204 49.0267C57.6358 47.9913 55.4035 46.3259 53.9002 45.2457C52.994 44.5946 51.3023 43.6411 49.7827 42.7847C48.6499 42.1462 47.6127 41.5617 47.068 41.1965L45.9766 42.0092ZM79.7258 61.0387C78.5238 60.7155 77.2211 59.9146 76.72 59.5546C77.1813 59.6021 77.8498 59.752 78.5184 59.9019C79.1033 60.033 79.6883 60.1642 80.1344 60.2267C80.86 60.3285 83.23 60.6288 84.3678 60.6274C83.3213 60.8992 80.9278 61.3619 79.7258 61.0387ZM74.6669 55.4997C75.3214 54.7415 77.3951 53.2423 77.941 53.0614C77.3037 52.9719 75.0201 53.9845 74.2566 54.9592C73.6945 55.6768 73.3448 56.5603 73.1088 57.1564C73.0242 57.37 72.9543 57.5467 72.8944 57.6657C73.1301 57.4577 73.4652 57.0221 73.8321 56.5453C74.1022 56.1944 74.3894 55.8211 74.6669 55.4997ZM69.6112 52.6655C70.8126 52.4477 72.2038 51.1297 72.7492 50.4979C72.1578 50.7691 70.6475 51.42 69.3372 51.8544C68.0269 52.2887 67.062 52.3079 66.7433 52.2632L66.4709 52.8045C67.0171 52.8489 68.4099 52.8834 69.6112 52.6655ZM65.519 56.0515C65.9293 56.592 67.0509 58.1595 67.1618 59.566C67.2727 60.9724 67.121 63.4881 67.0313 64.5702C66.8943 64.1646 66.5926 63.1371 66.4823 62.2717C66.4134 61.7308 66.3788 61.2913 66.3441 60.8519L66.3441 60.8518C66.3094 60.4122 66.2747 59.9727 66.2058 59.4318C66.1203 58.7609 65.7931 56.8627 65.519 56.0515ZM59.509 54.4357C59.3981 53.0293 59.0963 51.8666 58.9592 51.461L58.6851 50.6498C58.5492 51.1459 58.3323 52.4355 58.5522 53.6254C58.7784 54.8493 58.634 55.4326 58.4244 56.2793C58.3793 56.4615 58.3312 56.656 58.2831 56.8716C58.0658 57.8456 58.4677 58.9902 58.6958 59.4408C58.6499 59.0802 58.6397 58.1966 58.9666 57.547C59.3753 56.7351 59.6477 56.1938 59.509 54.4357ZM65.0988 47.3963C64.8261 47.7122 64.1169 48.3983 63.4618 48.6155C62.8066 48.8327 61.2774 48.8886 60.5946 48.8894C60.8676 48.7989 61.6046 48.5095 62.3688 48.0758C63.1329 47.6421 64.5072 47.4421 65.0988 47.3963ZM72.8969 59.6944C72.9431 60.2804 73.145 61.6416 73.5829 62.3985C74.0207 63.1553 76.0438 64.9652 77.0006 65.7755C76.226 65.0551 74.7461 63.3969 74.4026 62.8032C74.0864 62.2565 73.7699 61.5593 73.4799 60.9203C73.268 60.4535 73.0702 60.0177 72.8969 59.6944Z" fill="white"/>
<path fill-rule="evenodd" clip-rule="evenodd" d="M-28.0102 26.8338C-26.4617 27.5984 -22.8728 29.5056 -20.9047 31.018C-18.9366 32.5304 -17.0775 34.2593 -16.394 34.9347C-17.1216 35.4766 -18.5761 37.1012 -18.5734 39.2652C-18.5702 41.9701 -16.7903 45.8901 -16.2438 46.1599C-15.6973 46.4297 -13.3775 45.2098 -12.5618 42.2334C-11.9093 39.8523 -13.023 37.275 -13.6614 36.2839L-9.42473 39.3895C-10.0155 40.1115 -11.2514 41.9343 -11.468 43.4493C-11.7388 45.3431 -11.1906 46.9654 -9.82354 48.3162C-8.72986 49.3968 -6.99853 50.8374 -6.26958 51.4226C-6.17959 50.5659 -5.91787 48.6902 -5.59095 48.0406C-5.1823 47.2287 -4.63907 44.7936 -5.5967 43.3071C-6.36279 42.1178 -7.10137 41.0999 -7.3749 40.7395C-5.87186 41.5943 -2.81113 43.3308 -2.59253 43.4387C-2.5137 43.4777 -2.57104 43.6743 -2.66298 43.9896C-2.88973 44.7673 -3.32695 46.2668 -2.45057 47.9017C-1.46521 49.7398 2.42398 51.5475 4.24541 52.2215C4.36779 51.5196 4.00909 49.5996 3.76449 48.4321C3.64771 47.8747 0.00214553 43.7062 0.00214553 43.7062C0.00214553 43.7062 4.32822 47.7285 5.05942 47.8928C6.14803 48.1373 7.52266 48.2943 9.1558 47.8879C11.3399 47.3443 13.3411 46.1247 14.0687 45.5828C12.5199 44.5929 8.90356 42.5595 6.8278 42.3456C4.75205 42.1316 2.23086 42.4412 1.22974 42.6228C2.1395 42.1709 4.25886 40.8069 5.45823 38.9661C6.6576 37.1253 6.86499 35.4931 6.81876 34.9071C5.13464 34.8641 1.46639 35.1029 0.266379 36.4026C-0.933633 37.7024 -2.505 40.5534 -3.14068 41.8164L-7.92307 39.1173C-7.05817 39.2064 -4.89166 39.1948 -3.1448 38.4354C-1.39793 37.6759 0.765297 34.9594 1.62855 33.6961C-0.147195 33.1572 -4.16249 32.4587 -6.01767 33.9757C-7.87285 35.4926 -8.79016 37.2249 -9.01691 37.9014L-12.7063 35.7418C-11.6595 35.6955 -9.18415 35.1155 -7.6572 33.1662C-6.13025 31.2168 -5.56689 30.3686 -5.47608 30.1882C-6.97885 29.5588 -10.4482 28.6793 -12.3034 30.1963C-14.1585 31.7132 -14.985 33.265 -15.1664 33.8513C-16.351 32.8159 -18.5833 31.1505 -20.0866 30.0703C-20.9928 29.4192 -22.6845 28.4657 -24.2041 27.6093C-25.3369 26.9708 -26.3741 26.3863 -26.9188 26.0211L-28.0102 26.8338ZM5.73946 45.8633C4.53747 45.5402 3.23476 44.7393 2.73365 44.3792C3.19493 44.4267 3.86348 44.5766 4.53202 44.7265L4.53203 44.7265C5.11701 44.8576 5.70199 44.9888 6.14811 45.0514C6.87365 45.1532 9.24364 45.4534 10.3815 45.4521C9.335 45.7238 6.94145 46.1865 5.73946 45.8633ZM0.680549 40.3243C1.33505 39.5661 3.40873 38.067 3.95469 37.886C3.31737 37.7966 1.03373 38.8091 0.270256 39.7838C-0.291841 40.5014 -0.641565 41.3849 -0.877549 41.9811C-0.962092 42.1946 -1.03204 42.3713 -1.09192 42.4903C-0.856206 42.2823 -0.521092 41.8468 -0.154208 41.37C0.115822 41.019 0.403063 40.6457 0.680549 40.3243ZM-4.37508 37.4902C-3.17374 37.2723 -1.78257 35.9543 -1.23716 35.3225C-1.82853 35.5937 -3.33884 36.2447 -4.64916 36.679C-5.95947 37.1134 -6.92437 37.1325 -7.24303 37.0878L-7.51546 37.6291C-6.96923 37.6736 -5.57642 37.708 -4.37508 37.4902ZM-8.46735 40.8762C-8.05705 41.4167 -6.93548 42.9842 -6.82453 44.3906C-6.71359 45.797 -6.86529 48.3127 -6.95501 49.3948C-7.09205 48.9892 -7.39369 47.9617 -7.50398 47.0963C-7.5729 46.5555 -7.60756 46.1161 -7.64222 45.6766L-7.64222 45.6766L-7.64223 45.6766L-7.64223 45.6766L-7.64223 45.6766L-7.64224 45.6764L-7.64225 45.6764C-7.67692 45.2369 -7.71159 44.7974 -7.78052 44.2565C-7.86601 43.5856 -8.19327 41.6873 -8.46735 40.8762ZM-14.4773 39.2604C-14.5883 37.8539 -14.8901 36.6912 -15.0271 36.2856L-15.3012 35.4745C-15.4371 35.9705 -15.654 37.2601 -15.4341 38.45C-15.2079 39.674 -15.3523 40.2573 -15.5619 41.1039C-15.607 41.2861 -15.6552 41.4806 -15.7033 41.6962C-15.9206 42.6703 -15.5186 43.8149 -15.2905 44.2654C-15.3365 43.9048 -15.3466 43.0212 -15.0197 42.3717C-14.6111 41.5597 -14.3386 41.0184 -14.4773 39.2604ZM-8.88748 32.221C-9.16019 32.5369 -9.86939 33.2229 -10.5246 33.4401C-11.1797 33.6573 -12.709 33.7132 -13.3917 33.714C-13.1187 33.6235 -12.3817 33.3341 -11.6176 32.9004C-10.8534 32.4667 -9.47912 32.2667 -8.88748 32.221ZM-1.08946 44.519C-1.04323 45.105 -0.841313 46.4662 -0.403448 47.2231C0.0344158 47.9799 2.05749 49.7898 3.01429 50.6002C2.23966 49.8798 0.759807 48.2216 0.416317 47.6279C0.10004 47.0812 -0.216419 46.3839 -0.50646 45.7449L-0.506466 45.7449C-0.718352 45.2781 -0.91614 44.8423 -1.08946 44.519Z" fill="white"/>
</g>
</svg>
