<svg width="561" height="506" viewBox="0 0 561 506" fill="none" xmlns="http://www.w3.org/2000/svg">
<path d="M181.352 426L142.472 369.84H140.168H99.56V426H52.904V224.4H140.168C158.024 224.4 173.48 227.376 186.536 233.328C199.784 239.28 209.96 247.728 217.064 258.672C224.168 269.616 227.72 282.576 227.72 297.552C227.72 312.528 224.072 325.488 216.776 336.432C209.672 347.184 199.496 355.44 186.248 361.2L231.464 426H181.352ZM180.488 297.552C180.488 286.224 176.84 277.584 169.544 271.632C162.248 265.488 151.592 262.416 137.576 262.416H99.56V332.688H137.576C151.592 332.688 162.248 329.616 169.544 323.472C176.84 317.328 180.488 308.688 180.488 297.552Z" fill="black"/>
<rect x="154" y="155" width="253" height="196" fill="#FFEF00"/>
<rect x="154" y="275.386" width="103.639" height="75.6142" fill="#F60035"/>
<rect x="303.361" y="275.386" width="103.639" height="75.6142" fill="#F60035"/>
<rect x="154" y="155" width="103.639" height="75.6142" fill="#F60035"/>
<rect x="303.361" y="155" width="103.639" height="75.6142" fill="#F60035"/>
<rect x="154.5" y="155.5" width="252" height="195" stroke="black"/>
</svg>
