<svg width="103" height="104" viewBox="0 0 103 104" fill="none" xmlns="http://www.w3.org/2000/svg">
<mask id="mask0" mask-type="alpha" maskUnits="userSpaceOnUse" x="0" y="0" width="103" height="104">
<ellipse cx="51.5" cy="52" rx="51.5" ry="52" fill="white"/>
</mask>
<g mask="url(#mask0)">
<path d="M22.1914 90.343L15.067 89.2442C10.8259 88.5901 7 91.8712 7 96.1624V107C7 110.866 10.134 114 14 114H90C93.866 114 97 110.866 97 107V96.1624C97 91.8712 93.1741 88.5901 88.933 89.2442L81.8086 90.343C80.6228 90.5259 79.4099 90.4009 78.2863 89.9801L75.4553 88.9197C73.8721 88.3267 72.1279 88.3267 70.5447 88.9197L68.4553 89.7023C66.8721 90.2953 65.1279 90.2953 63.5447 89.7023L61.4553 88.9197C59.8721 88.3267 58.1279 88.3267 56.5447 88.9197L54.4553 89.7023C52.8721 90.2953 51.1279 90.2953 49.5447 89.7023L47.4553 88.9197C45.8721 88.3267 44.1279 88.3267 42.5447 88.9197L40.4553 89.7023C38.8721 90.2953 37.1279 90.2953 35.5447 89.7023L33.4553 88.9197C31.8721 88.3267 30.1279 88.3267 28.5447 88.9197L25.7137 89.9801C24.5901 90.4009 23.3772 90.5259 22.1914 90.343Z" fill="white"/>
<path fill-rule="evenodd" clip-rule="evenodd" d="M76.5755 86.7336V84.3759C75.0009 84.4907 72.2329 84.6589 68.687 84.8218C68.5644 84.8274 68.4477 84.7371 68.3122 84.6321C68.1926 84.5395 68.0582 84.4354 67.8921 84.3759C67.7902 84.3759 67.676 84.375 67.5619 84.374C67.3337 84.3721 67.1054 84.3703 66.9748 84.3759C66.7868 84.384 66.7018 84.5154 66.616 84.648C66.5285 84.7832 66.4403 84.9196 66.241 84.9278C61.8966 85.1049 56.6859 85.259 51.1978 85.3066C51.0006 85.3083 50.7267 85.1348 50.4544 84.9623C50.1866 84.7926 49.9203 84.624 49.7302 84.6241C49.5651 84.6242 49.4642 84.6247 49.3801 84.6252C49.2387 84.626 49.145 84.6265 48.8741 84.6241C48.7137 84.6227 48.5164 84.7926 48.3198 84.9618C48.1244 85.13 47.9299 85.2975 47.7734 85.295C39.1787 85.1616 32.8569 84.2669 29.9173 83.6538C29.5612 83.5795 29.2548 83.5094 29 83.4453C29 84.0657 29.2568 85.4679 30.2842 86.1131C30.4154 86.1955 30.5478 86.2974 30.6994 86.4138C31.6037 87.109 33.1874 88.3264 39.2334 89.0537C39.6545 88.9783 40.0704 88.864 40.4756 88.7107L42.5237 87.9362C44.1192 87.3329 45.8801 87.3329 47.4756 87.9362L49.5237 88.7107C51.1192 89.3141 52.8801 89.3141 54.4756 88.7107L56.5237 87.9362C58.1192 87.3329 59.8801 87.3329 61.4756 87.9362L63.5237 88.7107C63.9083 88.8562 64.3025 88.9665 64.7017 89.0419C66.303 88.879 67.7506 88.6929 69.0449 88.4955L70.5237 87.9362C71.6187 87.5222 72.7915 87.3923 73.9353 87.5465C75.142 87.2477 76.0215 86.9642 76.5755 86.7336ZM79.921 89.3629C79.4558 89.354 78.9918 89.2659 78.5496 89.0986L77.3619 88.6496L77.1259 86.7336L77.0878 85.1106C77.0745 84.5431 76.6535 84.0681 76.0918 83.9867L76.0307 83.9779C75.8642 83.9537 75.6961 83.9416 75.5278 83.9416H73.9269C73.7775 83.9416 73.6291 83.9179 73.4872 83.8715L70.072 82.7537C69.9754 82.7221 69.9101 82.632 69.9101 82.5303C69.9101 82.3699 70.0672 82.2566 70.2194 82.3073L73.4634 83.3864C73.5807 83.4254 73.7031 83.447 73.8267 83.4504L75.9029 83.5073L78.5788 83.8467C79.0229 83.903 79.3771 84.2445 79.4496 84.6861L79.8985 89.0889C79.9078 89.1801 79.9153 89.2715 79.921 89.3629ZM48.8741 37.3467L32.9137 77.365L47.4676 79.3504L50.036 45.7226L48.8741 37.3467ZM53.1831 8.45238L51.6068 30.2737L47.8957 81.646H48.7518L54.1556 8.52343C54.1764 8.24081 53.9528 8 53.6694 8C53.4138 8 53.2016 8.19743 53.1831 8.45238ZM68.5036 83.8796H47.7734L47.8957 82.0182H48.7518L48.8741 82.2664V82.7007L68.5036 83.4453V83.8796ZM49.4856 78.5438L73.946 77.3029L71.7779 52.6207C70.8248 41.7706 68.0559 31.1577 63.5866 21.225C62.1012 17.9237 60.1914 14.8302 57.9057 12.0229L55.5396 9.11679H54.5L49.4856 78.5438Z" fill="white"/>
<path d="M102.5 52C102.5 80.4472 79.662 103.5 51.5 103.5C23.338 103.5 0.5 80.4472 0.5 52C0.5 23.5528 23.338 0.5 51.5 0.5C79.662 0.5 102.5 23.5528 102.5 52Z" stroke="white"/>
</g>
</svg>
