<svg width="15" height="21" viewBox="0 0 15 21" fill="none" xmlns="http://www.w3.org/2000/svg">
<path fill-rule="evenodd" clip-rule="evenodd" d="M13.35 13.6667V7.33333C13.35 4.18531 10.7309 1.63333 7.5 1.63333C4.26913 1.63333 1.65 4.18531 1.65 7.33333V13.6667C1.65 16.8147 4.26913 19.3667 7.5 19.3667C10.7309 19.3667 13.35 16.8147 13.35 13.6667ZM7.5 1C3.91015 1 1 3.83553 1 7.33333V13.6667C1 17.1645 3.91015 20 7.5 20C11.0899 20 14 17.1645 14 13.6667V7.33333C14 3.83553 11.0899 1 7.5 1Z" fill="white"/>
<path fill-rule="evenodd" clip-rule="evenodd" d="M8 4V11H7V4H8Z" fill="white"/>
</svg>
