<svg width="327" height="327" viewBox="0 0 327 327" fill="none" xmlns="http://www.w3.org/2000/svg">
<g clip-path="url(#clip0)">
<circle cx="59.5" cy="235.5" r="46" stroke="white" stroke-width="3"/>
<circle cx="255.5" cy="235.5" r="46" stroke="white" stroke-width="3"/>
<circle cx="157.5" cy="66.5" r="46" stroke="white" stroke-width="3"/>
<path d="M129.959 91V82.4688H132.367C133.109 82.4688 133.766 82.6328 134.336 82.9609C134.906 83.2891 135.346 83.7559 135.654 84.3613C135.967 84.9668 136.125 85.6621 136.129 86.4473V86.9922C136.129 87.7969 135.973 88.502 135.66 89.1074C135.352 89.7129 134.908 90.1777 134.33 90.502C133.756 90.8262 133.086 90.9922 132.32 91H129.959ZM131.084 83.3945V90.0801H132.268C133.135 90.0801 133.809 89.8105 134.289 89.2715C134.773 88.7324 135.016 87.9648 135.016 86.9688V86.4707C135.016 85.502 134.787 84.75 134.33 84.2148C133.877 83.6758 133.232 83.4023 132.396 83.3945H131.084ZM139.041 91H137.916V82.4688H139.041V91ZM143.617 87.1973C142.652 86.9199 141.949 86.5801 141.508 86.1777C141.07 85.7715 140.852 85.2715 140.852 84.6777C140.852 84.0059 141.119 83.4512 141.654 83.0137C142.193 82.5723 142.893 82.3516 143.752 82.3516C144.338 82.3516 144.859 82.4648 145.316 82.6914C145.777 82.918 146.133 83.2305 146.383 83.6289C146.637 84.0273 146.764 84.4629 146.764 84.9355H145.633C145.633 84.4199 145.469 84.0156 145.141 83.7227C144.812 83.4258 144.35 83.2773 143.752 83.2773C143.197 83.2773 142.764 83.4004 142.451 83.6465C142.143 83.8887 141.988 84.2266 141.988 84.6602C141.988 85.0078 142.135 85.3027 142.428 85.5449C142.725 85.7832 143.227 86.002 143.934 86.2012C144.645 86.4004 145.199 86.6211 145.598 86.8633C146 87.1016 146.297 87.3809 146.488 87.7012C146.684 88.0215 146.781 88.3984 146.781 88.832C146.781 89.5234 146.512 90.0781 145.973 90.4961C145.434 90.9102 144.713 91.1172 143.811 91.1172C143.225 91.1172 142.678 91.0059 142.17 90.7832C141.662 90.5566 141.27 90.248 140.992 89.8574C140.719 89.4668 140.582 89.0234 140.582 88.5273H141.713C141.713 89.043 141.902 89.4512 142.281 89.752C142.664 90.0488 143.174 90.1973 143.811 90.1973C144.404 90.1973 144.859 90.0762 145.176 89.834C145.492 89.5918 145.65 89.2617 145.65 88.8438C145.65 88.4258 145.504 88.1035 145.211 87.877C144.918 87.6465 144.387 87.4199 143.617 87.1973ZM154.504 88.293C154.398 89.1953 154.064 89.8926 153.502 90.3848C152.943 90.873 152.199 91.1172 151.27 91.1172C150.262 91.1172 149.453 90.7559 148.844 90.0332C148.238 89.3105 147.936 88.3438 147.936 87.1328V86.3125C147.936 85.5195 148.076 84.8223 148.357 84.2207C148.643 83.6191 149.045 83.1582 149.564 82.8379C150.084 82.5137 150.686 82.3516 151.369 82.3516C152.275 82.3516 153.002 82.6055 153.549 83.1133C154.096 83.6172 154.414 84.3164 154.504 85.2109H153.373C153.275 84.5312 153.062 84.0391 152.734 83.7344C152.41 83.4297 151.955 83.2773 151.369 83.2773C150.65 83.2773 150.086 83.543 149.676 84.0742C149.27 84.6055 149.066 85.3613 149.066 86.3418V87.168C149.066 88.0938 149.26 88.8301 149.646 89.377C150.033 89.9238 150.574 90.1973 151.27 90.1973C151.895 90.1973 152.373 90.0566 152.705 89.7754C153.041 89.4902 153.264 88.9961 153.373 88.293H154.504ZM162.607 87.0098C162.607 87.8457 162.467 88.5762 162.186 89.2012C161.904 89.8223 161.506 90.2969 160.99 90.625C160.475 90.9531 159.873 91.1172 159.186 91.1172C158.514 91.1172 157.918 90.9531 157.398 90.625C156.879 90.293 156.475 89.8223 156.186 89.2129C155.9 88.5996 155.754 87.8906 155.746 87.0859V86.4707C155.746 85.6504 155.889 84.9258 156.174 84.2969C156.459 83.668 156.861 83.1875 157.381 82.8555C157.904 82.5195 158.502 82.3516 159.174 82.3516C159.857 82.3516 160.459 82.5176 160.979 82.8496C161.502 83.1777 161.904 83.6562 162.186 84.2852C162.467 84.9102 162.607 85.6387 162.607 86.4707V87.0098ZM161.488 86.459C161.488 85.4473 161.285 84.6719 160.879 84.1328C160.473 83.5898 159.904 83.3184 159.174 83.3184C158.463 83.3184 157.902 83.5898 157.492 84.1328C157.086 84.6719 156.877 85.4219 156.865 86.3828V87.0098C156.865 87.9902 157.07 88.7617 157.48 89.3242C157.895 89.8828 158.463 90.1621 159.186 90.1621C159.912 90.1621 160.475 89.8984 160.873 89.3711C161.271 88.8398 161.477 88.0801 161.488 87.0918V86.459ZM166.99 89.5059L169.428 82.4688H170.658L167.494 91H166.498L163.34 82.4688H164.564L166.99 89.5059ZM176.629 87.0566H172.932V90.0801H177.227V91H171.807V82.4688H177.168V83.3945H172.932V86.1367H176.629V87.0566ZM181.756 87.5488H179.752V91H178.621V82.4688H181.445C182.406 82.4688 183.145 82.6875 183.66 83.125C184.18 83.5625 184.439 84.1992 184.439 85.0352C184.439 85.5664 184.295 86.0293 184.006 86.4238C183.721 86.8184 183.322 87.1133 182.811 87.3086L184.814 90.9297V91H183.607L181.756 87.5488ZM179.752 86.6289H181.48C182.039 86.6289 182.482 86.4844 182.811 86.1953C183.143 85.9062 183.309 85.5195 183.309 85.0352C183.309 84.5078 183.15 84.1035 182.834 83.8223C182.521 83.541 182.068 83.3984 181.475 83.3945H179.752V86.6289Z" fill="white"/>
<path d="M154 57.5V44H145C143.667 47.6667 141 56.2 141 59V69.0014C141 69.5537 141.448 70 142 70H151.1C151.611 70 152.04 69.6153 152.113 69.1087C152.607 65.679 154 59.6945 154 57.5Z" fill="white"/>
<rect x="146" y="39" width="8" height="4" fill="white"/>
<path d="M160 57.5V44H169C170.333 47.6667 173 56.2 173 59V69.0014C173 69.5537 172.552 70 172 70H162.9C162.389 70 161.96 69.6153 161.887 69.1087C161.393 65.679 160 59.6945 160 57.5Z" fill="white"/>
<rect width="8" height="4" transform="matrix(-1 0 0 1 168 39)" fill="white"/>
<rect x="155" y="44" width="4" height="14" fill="white"/>
<path d="M238.191 261H237.066V252.469H238.191V261ZM240.254 261V252.469H242.662C243.404 252.469 244.061 252.633 244.631 252.961C245.201 253.289 245.641 253.756 245.949 254.361C246.262 254.967 246.42 255.662 246.424 256.447V256.992C246.424 257.797 246.268 258.502 245.955 259.107C245.646 259.713 245.203 260.178 244.625 260.502C244.051 260.826 243.381 260.992 242.615 261H240.254ZM241.379 253.395V260.08H242.562C243.43 260.08 244.104 259.811 244.584 259.271C245.068 258.732 245.311 257.965 245.311 256.969V256.471C245.311 255.502 245.082 254.75 244.625 254.215C244.172 253.676 243.527 253.402 242.691 253.395H241.379ZM252.951 257.057H249.254V260.08H253.549V261H248.129V252.469H253.49V253.395H249.254V256.137H252.951V257.057ZM259.66 258.773H256.086L255.283 261H254.123L257.381 252.469H258.365L261.629 261H260.475L259.66 258.773ZM256.426 257.848H259.326L257.873 253.857L256.426 257.848ZM267.91 253.395H265.168V261H264.049V253.395H261.312V252.469H267.91V253.395ZM273.998 257.057H270.301V260.08H274.596V261H269.176V252.469H274.537V253.395H270.301V256.137H273.998V257.057Z" fill="white"/>
<mask id="path-11-inside-1" fill="white">
<path fill-rule="evenodd" clip-rule="evenodd" d="M260 225.662C262.989 223.933 265 220.701 265 217C265 211.477 260.523 207 255 207C249.477 207 245 211.477 245 217C245 220.701 247.011 223.933 250 225.662V233H260V225.662Z"/>
</mask>
<path d="M260 225.662L259.499 224.797L259 225.085V225.662H260ZM250 225.662H251V225.085L250.501 224.797L250 225.662ZM250 233H249V234H250V233ZM260 233V234H261V233H260ZM264 217C264 220.33 262.192 223.239 259.499 224.797L260.501 226.528C263.786 224.627 266 221.073 266 217H264ZM255 208C259.971 208 264 212.029 264 217H266C266 210.925 261.075 206 255 206V208ZM246 217C246 212.029 250.029 208 255 208V206C248.925 206 244 210.925 244 217H246ZM250.501 224.797C247.808 223.239 246 220.33 246 217H244C244 221.073 246.214 224.627 249.499 226.528L250.501 224.797ZM251 233V225.662H249V233H251ZM260 232H250V234H260V232ZM259 225.662V233H261V225.662H259Z" fill="white" mask="url(#path-11-inside-1)"/>
<mask id="path-13-inside-2" fill="white">
</mask>
<path d="M256 212.5C255.724 212.5 255.5 212.724 255.5 213C255.5 213.276 255.724 213.5 256 213.5V212.5ZM259.5 217C259.5 217.276 259.724 217.5 260 217.5C260.276 217.5 260.5 217.276 260.5 217H259.5ZM256 213.5C257.933 213.5 259.5 215.067 259.5 217H260.5C260.5 214.515 258.485 212.5 256 212.5V213.5Z" fill="white" mask="url(#path-13-inside-2)"/>
<path fill-rule="evenodd" clip-rule="evenodd" d="M250 228C249.448 228 249 228.448 249 229C249 229.552 249.448 230 250 230L250 231C249.448 231 249 231.448 249 232C249 232.552 249.448 233 250 233L250 234C249.448 234 249 234.448 249 235C249 235.552 249.448 236 250 236H250.1C250.563 238.282 252.581 240 255 240C257.419 240 259.437 238.282 259.9 236H260C260.552 236 261 235.552 261 235C261 234.448 260.552 234 260 234V233C260.552 233 261 232.552 261 232C261 231.448 260.552 231 260 231V230C260.552 230 261 229.552 261 229C261 228.448 260.552 228 260 228H250Z" fill="white"/>
<path d="M36.543 258.506L38.9805 251.469H40.2109L37.0469 260H36.0508L32.8926 251.469H34.1172L36.543 258.506ZM45.625 257.773H42.0508L41.248 260H40.0879L43.3457 251.469H44.3301L47.5938 260H46.4395L45.625 257.773ZM42.3906 256.848H45.291L43.8379 252.857L42.3906 256.848ZM49.873 259.08H53.916V260H48.7422V251.469H49.873V259.08ZM56.4062 260H55.2812V251.469H56.4062V260ZM58.4688 260V251.469H60.877C61.6191 251.469 62.2754 251.633 62.8457 251.961C63.416 252.289 63.8555 252.756 64.1641 253.361C64.4766 253.967 64.6348 254.662 64.6387 255.447V255.992C64.6387 256.797 64.4824 257.502 64.1699 258.107C63.8613 258.713 63.418 259.178 62.8398 259.502C62.2656 259.826 61.5957 259.992 60.8301 260H58.4688ZM59.5938 252.395V259.08H60.7773C61.6445 259.08 62.3184 258.811 62.7988 258.271C63.2832 257.732 63.5254 256.965 63.5254 255.969V255.471C63.5254 254.502 63.2969 253.75 62.8398 253.215C62.3867 252.676 61.7422 252.402 60.9062 252.395H59.5938ZM70.9258 257.773H67.3516L66.5488 260H65.3887L68.6465 251.469H69.6309L72.8945 260H71.7402L70.9258 257.773ZM67.6914 256.848H70.5918L69.1387 252.857L67.6914 256.848ZM79.1758 252.395H76.4336V260H75.3145V252.395H72.5781V251.469H79.1758V252.395ZM85.2637 256.057H81.5664V259.08H85.8613V260H80.4414V251.469H85.8027V252.395H81.5664V255.137H85.2637V256.057Z" fill="white"/>
<path fill-rule="evenodd" clip-rule="evenodd" d="M54.5338 230.748C62.6412 230.748 69.2136 225.879 69.2136 219.874C69.2136 213.868 62.6412 209 54.5338 209C46.4264 209 39.854 213.868 39.854 219.874C39.854 223.246 41.9258 226.259 45.1777 228.253C44.1269 230.316 43.0408 231.854 40.9414 232.379C35.7464 233.678 42.0288 234.01 47.4655 232.379C48.9134 231.944 50.4958 231.083 51.3913 230.498C52.4038 230.662 53.4552 230.748 54.5338 230.748Z" fill="white"/>
<path fill-rule="evenodd" clip-rule="evenodd" d="M71.3883 219.874C71.3883 227.08 63.5989 232.923 53.9901 232.923C53.9387 232.923 53.8874 232.922 53.8362 232.922C56.5005 234.936 60.2134 236.185 64.3203 236.185C65.0844 236.185 65.8349 236.141 66.5676 236.058C67.4858 236.636 68.9519 237.411 70.3013 237.816C75.738 239.447 82.0203 239.114 76.8254 237.816C74.8913 237.332 73.8173 235.989 72.8385 234.168C76.5683 232.196 79.0001 228.964 79.0001 225.311C79.0001 220.892 75.4423 217.089 70.3329 215.388C71.0157 216.787 71.3883 218.298 71.3883 219.874Z" fill="white"/>
<path d="M37 185.5C31.5 137.5 59 88 102 67.0007" stroke="white" stroke-width="3"/>
<path d="M91.9137 64.1551L102.147 66.8971L99.405 77.1303" stroke="white" stroke-width="3"/>
<path d="M213.494 63.6446C257.298 84.0272 285.144 133.333 280.59 180.97" stroke="white" stroke-width="3"/>
<path d="M288.285 173.856L280.602 181.15L273.308 173.466" stroke="white" stroke-width="3"/>
<path d="M225.045 283.842C185.385 311.433 128.764 310.676 89.8941 282.763" stroke="white" stroke-width="3"/>
<path d="M92.1683 292.993L89.7331 282.682L100.044 280.247" stroke="white" stroke-width="3"/>
</g>
<defs>
<clipPath id="clip0">
<rect width="327" height="327" fill="white"/>
</clipPath>
</defs>
</svg>
