<svg width="103" height="104" viewBox="0 0 103 104" fill="none" xmlns="http://www.w3.org/2000/svg">
<mask id="mask0" mask-type="alpha" maskUnits="userSpaceOnUse" x="0" y="0" width="103" height="104">
<ellipse cx="51.5" cy="52" rx="51.5" ry="52" fill="white"/>
</mask>
<g mask="url(#mask0)">
<path d="M102.5 52C102.5 80.4472 79.662 103.5 51.5 103.5C23.338 103.5 0.5 80.4472 0.5 52C0.5 23.5528 23.338 0.5 51.5 0.5C79.662 0.5 102.5 23.5528 102.5 52Z" stroke="white"/>
<circle cx="38.5" cy="50.5" r="4.5" fill="white"/>
<path d="M15.4597 50.5181L23.26 47.7421L26.2738 51.5849L24.4687 53.3343C19.42 58.2272 15.3593 64.0453 12.5078 70.4717L2.97283 78.5586C2.40468 79.0404 2.24822 79.8526 2.59671 80.5111C3.02411 81.3186 4.0434 81.5993 4.82396 81.1245L14.7714 75.0731C16.1148 74.2559 17.2087 73.0865 17.9346 71.6917L19.6759 68.3459L24.4818 72.5157L18.8149 78.3426C18.2289 78.9452 18.1585 79.8809 18.6479 80.5643C19.2128 81.3533 20.3148 81.5262 21.0942 80.9482L30.2774 74.1377C31.4402 73.2753 31.5872 71.5902 30.5912 70.5395L24.4818 64.0943L32.4645 58.3711L35.9258 65.52C36.3944 66.488 37.4006 67.0776 38.4741 67.0134L47.5548 66.4701C48.3665 66.4215 49 65.7491 49 64.9358C49 64.1366 48.3875 63.4708 47.5911 63.4042L39.2253 62.7044L37.9351 60.2551C36.3035 57.1578 34.2944 54.2746 31.9536 51.6715L25.2915 44.2627C24.6226 43.5189 23.536 43.3204 22.6474 43.7797L14.388 48.0486C13.7465 48.3802 13.4798 49.1581 13.783 49.8134C14.0758 50.4464 14.8027 50.7519 15.4597 50.5181Z" fill="white"/>
<path d="M89 48C89 50.2091 87.2091 52 85 52C82.7909 52 81 50.2091 81 48C81 45.7909 82.7909 44 85 44C87.2091 44 89 45.7909 89 48Z" fill="white"/>
<path fill-rule="evenodd" clip-rule="evenodd" d="M91.5 84.3761C95.8498 84.3761 99.3761 80.8498 99.3761 76.5C99.3761 72.1502 95.8498 68.6239 91.5 68.6239C87.1502 68.6239 83.6239 72.1502 83.6239 76.5C83.6239 80.8498 87.1502 84.3761 91.5 84.3761ZM91.5 86C96.7467 86 101 81.7467 101 76.5C101 71.2533 96.7467 67 91.5 67C86.2533 67 82 71.2533 82 76.5C82 81.7467 86.2533 86 91.5 86Z" fill="white"/>
<path fill-rule="evenodd" clip-rule="evenodd" d="M59 84.3761C63.5788 84.3761 67.2906 80.8498 67.2906 76.5C67.2906 72.1502 63.5788 68.6239 59 68.6239C54.4212 68.6239 50.7094 72.1502 50.7094 76.5C50.7094 80.8498 54.4212 84.3761 59 84.3761ZM59 86C64.5228 86 69 81.7467 69 76.5C69 71.2533 64.5228 67 59 67C53.4772 67 49 71.2533 49 76.5C49 81.7467 53.4772 86 59 86Z" fill="white"/>
<path d="M83.669 53.7731L78.8798 48.527C78.466 48.0736 77.8397 47.8942 77.256 48.0617L75.2614 48.6343C72.8015 49.3403 70.4501 50.3945 68.2751 51.7662L66.6937 52.7635C65.3187 53.6307 64.2525 54.9274 63.6526 56.4621L63.4437 56.9966C62.8194 58.5937 62.8552 60.3817 63.5428 61.9513C64.2054 63.464 65.4199 64.6515 66.9268 65.2599L76.5024 69.1263L73.2222 80.1665C73.0126 80.872 73.3655 81.6243 74.0345 81.8981C74.7313 82.1833 75.5234 81.8499 75.8225 81.1456L81.4015 68.0073C81.7586 67.1663 81.4732 66.1843 80.7249 65.6798L71.5535 59.4955L72.7993 58.9134C74.4494 58.1425 76.1924 57.5998 77.9824 57.2995L80.2344 56.9217L81.6028 61.9502C81.8521 62.8664 82.6411 63.5204 83.5686 63.5797L93.4862 64.214C94.3065 64.2665 95 63.5998 95 62.7587C95 62.0671 94.5253 61.4707 93.8634 61.3307L85.1833 59.4955L84.0643 54.5333C84.0001 54.2487 83.8638 53.9865 83.669 53.7731Z" fill="white"/>
<path fill-rule="evenodd" clip-rule="evenodd" d="M41.5096 21.9891L31.5968 23.7129C30.7626 23.858 30 23.2111 30 22.3586C30 21.745 30.4039 21.2058 30.9897 21.0372L41.1349 18.1179C42.1409 17.8284 43.224 18.0802 44.0023 18.7844L52.6363 26.5968C53.0907 27.0081 53.3503 27.5944 53.3503 28.2097V30.7765C53.3503 31.4582 53.5807 32.1196 54.0035 32.6519L55.0968 34.0283L55.1507 34.0089C55.7949 33.7769 56.4598 33.6199 57.1321 33.538C55.864 32.8671 55 31.5344 55 30C55 27.7909 56.7909 26 59 26C61.2091 26 63 27.7909 63 30C63 31.7058 61.9322 33.1623 60.4286 33.7374C60.731 33.8121 61.0304 33.9027 61.3254 34.0089L63.9605 34.9579C65.5838 35.5425 67.3684 35.5425 68.9917 34.9579L74.4283 33L75 34.504L69.5635 36.4619C67.5712 37.1794 65.381 37.1794 63.3887 36.4619L60.7537 35.5129C59.1304 34.9283 57.3457 34.9283 55.7224 35.5129L53.0874 36.4619C51.8316 36.9141 50.4971 37.0813 49.1832 36.9634L49.0446 37L48.8798 36.9311C48.2124 36.8487 47.5523 36.6923 46.9126 36.4619L44.2776 35.5129C43.8354 35.3537 43.3813 35.2378 42.9217 35.1653H40.6022C40.1426 35.2378 39.6885 35.3537 39.2463 35.5129L36.6113 36.4619C34.619 37.1794 32.4288 37.1794 30.4365 36.4619L25 34.504L25.5717 33L31.0083 34.9579C32.6316 35.5425 34.4162 35.5425 36.0395 34.9579L38.6746 34.0089C38.9104 33.924 39.1489 33.8491 39.3896 33.7843C41.4081 32.1179 43.5471 30.6037 45.7894 29.2546L47.8854 27.9935L41.5096 21.9891Z" fill="white"/>
</g>
</svg>
