<svg id="Layer_1" data-name="Layer 1" xmlns="http://www.w3.org/2000/svg" viewBox="0 0 337.68 597.93"><defs><style>.cls-1,.cls-6{fill:#fff;}.cls-1,.cls-27,.cls-28,.cls-29,.cls-33,.cls-5{stroke:#fff;stroke-miterlimit:10;}.cls-1{stroke-width:3px;}.cls-2,.cls-6{font-size:12px;}.cls-2{fill:#231f20;font-family:MyriadPro-Bold, Myriad Pro;font-weight:700;}.cls-3{letter-spacing:0em;}.cls-4{letter-spacing:0em;}.cls-27,.cls-28,.cls-29,.cls-33,.cls-5{fill:none;stroke-width:2px;}.cls-6{font-family:MyriadPro-Regular, Myriad Pro;}.cls-7{letter-spacing:-0.01em;}.cls-8{letter-spacing:-0.01em;}.cls-9{letter-spacing:-0.01em;}.cls-10{letter-spacing:-0.01em;}.cls-11{letter-spacing:0.02em;}.cls-12{letter-spacing:-0.01em;}.cls-13{letter-spacing:0em;}.cls-14{letter-spacing:0em;}.cls-15{letter-spacing:-0.01em;}.cls-16{letter-spacing:0em;}.cls-17{letter-spacing:0em;}.cls-18{letter-spacing:-0.01em;}.cls-19{letter-spacing:-0.02em;}.cls-20{letter-spacing:-0.01em;}.cls-21{letter-spacing:0em;}.cls-22{letter-spacing:-0.01em;}.cls-23{letter-spacing:0.02em;}.cls-24{letter-spacing:0.01em;}.cls-25{letter-spacing:-0.02em;}.cls-26{letter-spacing:0.02em;}.cls-27{stroke-dasharray:6.79 6.79;}.cls-28{stroke-dasharray:6.12 6.12;}.cls-29{stroke-dasharray:6.52 6.52;}.cls-30{letter-spacing:0.01em;}.cls-31{letter-spacing:0em;}.cls-32{letter-spacing:0.02em;}.cls-33{stroke-dasharray:6;}</style></defs><title>Artboard 1 copy 21</title><rect class="cls-1" x="158.55" y="23.49" width="75.14" height="22.21"/><rect class="cls-1" x="160.42" y="287.86" width="70.79" height="22.21"/><rect class="cls-1" x="126.34" y="499.35" width="138.85" height="22.21"/><rect class="cls-1" x="139.06" y="129.24" width="114.13" height="22.21"/><text class="cls-2" transform="translate(165.15 37.44)"><tspan class="cls-3">O</tspan><tspan class="cls-4" x="8.65" y="0">p</tspan><tspan x="15.86" y="0">en game</tspan></text><rect class="cls-5" x="134.4" y="182.11" width="49.47" height="22.21"/><text class="cls-6" transform="translate(142.41 196.36)"><tspan class="cls-7">C</tspan><tspan x="6.88" y="0">an</tspan><tspan class="cls-8" x="19.32" y="0">c</tspan><tspan x="24.62" y="0">el</tspan></text><rect class="cls-5" x="193.89" y="182.11" width="63.95" height="22.21"/><text class="cls-6" transform="translate(200.09 196.36)"><tspan class="cls-9">P</tspan><tspan x="6.32" y="0">l</tspan><tspan class="cls-10" x="9.16" y="0">a</tspan><tspan x="14.84" y="0">y game</tspan></text><text class="cls-2" transform="translate(166.26 301.81)"><tspan class="cls-9">S</tspan><tspan x="6.42" y="0">ta</tspan><tspan class="cls-11" x="17.16" y="0">r</tspan><tspan x="21.97" y="0">t game</tspan></text><text class="cls-6" transform="translate(155.99 354.68)">Jump <tspan class="cls-7" x="30.43" y="0">o</tspan><tspan class="cls-12" x="36.94" y="0">v</tspan><tspan x="42.59" y="0">er t</tspan><tspan class="cls-9" x="59.04" y="0">r</tspan><tspan x="62.9" y="0">aps</tspan></text><rect class="cls-5" x="150.76" y="340.73" width="90.72" height="22.21"/><text class="cls-6" transform="translate(156.09 460.43)">N<tspan class="cls-10" x="7.9" y="0">a</tspan><tspan class="cls-13" x="13.58" y="0">vig</tspan><tspan class="cls-14" x="28.87" y="0">a</tspan><tspan class="cls-8" x="34.61" y="0">t</tspan><tspan x="38.51" y="0">e </tspan><tspan class="cls-15" x="47.06" y="0">t</tspan><tspan x="50.96" y="0">e</tspan><tspan class="cls-16" x="56.98" y="0">r</tspan><tspan class="cls-9" x="60.95" y="0">r</tspan><tspan x="64.81" y="0">ain</tspan></text><rect class="cls-5" x="150.76" y="446.48" width="90.72" height="22.21"/><text class="cls-6" transform="translate(175.4 407.55)">E<tspan class="cls-17" x="5.9" y="0">a</tspan><tspan x="11.64" y="0">t </tspan><tspan class="cls-18" x="18.16" y="0">f</tspan><tspan x="21.5" y="0">ood</tspan></text><rect class="cls-5" x="169.35" y="393.6" width="53.55" height="22.21"/><text class="cls-2" transform="translate(130.76 513.3)"><tspan class="cls-8">A</tspan><tspan x="7.8" y="0">rri</tspan><tspan class="cls-19" x="20.21" y="0">v</tspan><tspan x="26.39" y="0">e </tspan><tspan class="cls-20" x="35.15" y="0">a</tspan><tspan class="cls-21" x="41.39" y="0">t wildli</tspan><tspan class="cls-22" x="77.65" y="0">f</tspan><tspan x="81.62" y="0">e </tspan><tspan class="cls-20" x="90.38" y="0">r</tspan><tspan x="94.85" y="0">ese</tspan><tspan class="cls-23" x="112.73" y="0">r</tspan><tspan class="cls-19" x="117.5" y="0">v</tspan><tspan x="123.68" y="0">e</tspan></text><text class="cls-6" transform="translate(32.68 407.55)">Cha<tspan class="cls-9" x="19.4" y="0">r</tspan><tspan x="23.27" y="0">a</tspan><tspan class="cls-24" x="29.05" y="0">c</tspan><tspan class="cls-8" x="34.58" y="0">t</tspan><tspan x="38.48" y="0">er dies</tspan></text><rect class="cls-5" x="26.32" y="393.6" width="84.02" height="22.21"/><text class="cls-6" transform="translate(173.16 566.17)"><tspan class="cls-25">W</tspan><tspan x="9.96" y="0">in le</tspan><tspan class="cls-22" x="30.82" y="0">v</tspan><tspan x="36.47" y="0">el</tspan></text><rect class="cls-5" x="166.97" y="552.22" width="57.69" height="22.21"/><text class="cls-2" transform="translate(143.74 143.19)"><tspan class="cls-8">A</tspan><tspan x="7.8" y="0">nimal in</tspan><tspan class="cls-22" x="50.82" y="0">f</tspan><tspan x="54.79" y="0">orm</tspan><tspan class="cls-20" x="76.6" y="0">a</tspan><tspan class="cls-21" x="82.83" y="0">tion</tspan></text><rect class="cls-5" x="100.9" y="76.39" width="82.35" height="22.21"/><text class="cls-6" transform="translate(108.68 90.63)">Choose <tspan class="cls-3" x="40.1" y="0">r</tspan><tspan x="44.08" y="0">hino</tspan></text><rect class="cls-5" x="193.22" y="76.34" width="98.12" height="22.21"/><text class="cls-6" transform="translate(200.85 90.59)">Choose ma<tspan class="cls-3" x="55.9" y="0">r</tspan><tspan class="cls-26" x="59.87" y="0">k</tspan><tspan x="65.7" y="0">hor</tspan></text><polyline class="cls-5" points="141.23 76.34 141.23 63.66 196.12 63.66 196.12 45.71"/><polyline class="cls-5" points="196.12 63.66 242.28 63.66 242.28 76.39"/><polyline class="cls-5" points="141.23 98.6 141.23 113.73 196.12 113.73 196.12 129.24"/><polyline class="cls-5" points="196.12 113.73 242.28 113.73 242.28 98.6"/><polyline class="cls-5" points="159.24 182.09 159.24 169.41 196.12 169.41 196.12 151.45"/><polyline class="cls-5" points="196.12 169.41 228.27 169.41 228.27 182.13"/><polyline class="cls-5" points="228.27 204.35 228.27 219.47 196.12 219.47 196.12 234.99"/><line class="cls-5" x1="134.4" y1="193.51" x2="131.4" y2="193.51"/><line class="cls-27" x1="124.62" y1="193.51" x2="87.28" y2="193.51"/><polyline class="cls-5" points="83.88 193.51 80.88 193.51 80.88 190.51"/><line class="cls-28" x1="80.88" y1="184.4" x2="80.88" y2="40.66"/><polyline class="cls-5" points="80.88 37.6 80.88 34.6 83.88 34.6"/><line class="cls-29" x1="90.4" y1="34.6" x2="152.29" y2="34.6"/><line class="cls-5" x1="155.55" y1="34.6" x2="158.55" y2="34.6"/><line class="cls-5" x1="196.12" y1="310.07" x2="196.12" y2="340.73"/><rect class="cls-1" x="144.27" y="236.7" width="103.71" height="22.21"/><text class="cls-2" transform="translate(147.18 250.65)"><tspan class="cls-30">G</tspan><tspan x="8.28" y="0">ame inst</tspan><tspan class="cls-31" x="53.63" y="0">r</tspan><tspan x="58.15" y="0">u</tspan><tspan class="cls-32" x="65.15" y="0">c</tspan><tspan x="70.75" y="0">tions</tspan></text><line class="cls-5" x1="196.12" y1="258.91" x2="196.12" y2="289.57"/><line class="cls-5" x1="196.12" y1="362.95" x2="196.12" y2="393.6"/><line class="cls-5" x1="196.12" y1="415.82" x2="196.12" y2="446.48"/><line class="cls-5" x1="196.12" y1="468.69" x2="196.12" y2="499.35"/><line class="cls-5" x1="196.12" y1="521.57" x2="196.12" y2="552.22"/><polyline class="cls-33" points="149.96 351.84 130.36 351.84 130.36 404.71 110.34 404.71"/><polyline class="cls-33" points="150.76 457.58 130.36 457.58 130.36 404.71 168.68 404.71"/><polyline class="cls-33" points="68.33 393.6 68.33 298.96 160.42 298.96"/><polyline class="cls-33" points="226.94 563.33 311.36 563.33 311.36 34.6 233.69 34.6"/></svg>