<svg width="37" height="35" viewBox="0 0 37 35" fill="none" xmlns="http://www.w3.org/2000/svg">
<g clip-path="url(#clip0)">
<path fill-rule="evenodd" clip-rule="evenodd" d="M1.00013 7C0.447846 7 0.000130415 7.44772 0.000130415 8V17H10.0002V16.5C10.0002 15.6716 10.6717 15 11.5002 15C12.3286 15 13.0002 15.6716 13.0002 16.5V17H25.0002V16.5C25.0002 15.6716 25.6717 15 26.5002 15C27.3286 15 28.0002 15.6716 28.0002 16.5V17H37.0001V8C37.0001 7.44772 36.5524 7 36.0001 7H1.00013ZM25.0002 19V19.5C25.0002 20.3284 25.6717 21 26.5002 21C27.3286 21 28.0002 20.3284 28.0002 19.5V19H37V33C37 34.1046 36.1046 35 35 35H2C0.895432 35 0 34.1046 0 33V19H10.0002V19.5C10.0002 20.3284 10.6717 21 11.5002 21C12.3286 21 13.0002 20.3284 13.0002 19.5V19H25.0002Z" fill="#0695D3"/>
<path fill-rule="evenodd" clip-rule="evenodd" d="M11.0005 4C11.0005 1.79086 12.7913 0 15.0005 0H23.0005C25.2096 0 27.0005 1.79086 27.0005 4V6H25.3453V3.71429C25.3453 2.60972 24.4499 1.71429 23.3453 1.71429H14.6557C13.5511 1.71429 12.6557 2.60972 12.6557 3.71429V6H11.0005V4Z" fill="#0695D3"/>
</g>
<defs>
<clipPath id="clip0">
<rect width="37" height="35" fill="white"/>
</clipPath>
</defs>
</svg>
